<svg width="28" height="21" viewBox="0 0 28 21" fill="none" xmlns="http://www.w3.org/2000/svg">
<path d="M24.12 2.29495C21.696 0.346951 17.863 0.0169511 17.701 0.00295113C17.445 -0.0190489 17.202 0.125951 17.097 0.359951C17.093 0.367951 16.879 0.988951 16.672 1.58795C19.489 2.08095 21.403 3.17495 21.505 3.23495C21.983 3.51295 22.143 4.12595 21.864 4.60295C21.679 4.92095 21.344 5.09895 21 5.09895C20.829 5.09895 20.657 5.05595 20.499 4.96395C20.471 4.94695 17.663 3.34895 14.002 3.34895C10.34 3.34895 7.531 4.94795 7.503 4.96395C7.026 5.24095 6.414 5.07795 6.137 4.59995C5.86 4.12395 6.021 3.51295 6.497 3.23495C6.599 3.17495 8.52 2.07695 11.345 1.58495C11.127 0.978951 10.907 0.367951 10.903 0.359951C10.798 0.124951 10.555 -0.0230489 10.299 0.00295113C10.137 0.0159511 6.304 0.345951 3.848 2.32095C2.564 3.50695 0 10.441 0 16.436C0 16.542 0.027 16.645 0.08 16.737C1.851 19.847 6.679 20.661 7.779 20.696C7.786 20.697 7.792 20.697 7.798 20.697C7.992 20.697 8.175 20.604 8.29 20.447L9.48 18.835C6.87 18.206 5.49 17.217 5.407 17.156C4.963 16.829 4.867 16.203 5.194 15.758C5.52 15.315 6.144 15.217 6.588 15.542C6.625 15.566 9.172 17.349 14 17.349C18.847 17.349 21.387 15.559 21.412 15.541C21.856 15.219 22.482 15.316 22.807 15.762C23.131 16.206 23.037 16.828 22.595 17.154C22.512 17.215 21.139 18.202 18.535 18.831L19.71 20.446C19.825 20.604 20.008 20.696 20.202 20.696C20.209 20.696 20.215 20.696 20.221 20.695C21.322 20.66 26.15 19.846 27.92 16.736C27.973 16.644 28 16.541 28 16.435C28 10.441 25.436 3.50695 24.12 2.29495ZM10 14.349C8.895 14.349 8 13.23 8 11.849C8 10.468 8.895 9.34895 10 9.34895C11.105 9.34895 12 10.468 12 11.849C12 13.23 11.105 14.349 10 14.349ZM18 14.349C16.895 14.349 16 13.23 16 11.849C16 10.468 16.895 9.34895 18 9.34895C19.105 9.34895 20 10.468 20 11.849C20 13.23 19.105 14.349 18 14.349Z" fill="url(#paint0_linear_55_1269)"/>
<defs>
<linearGradient id="paint0_linear_55_1269" x1="-1.20302e-06" y1="-4.82929" x2="26.6353" y2="28.2525" gradientUnits="userSpaceOnUse">
<stop stop-color="#28ADE5"/>
<stop offset="0.473958" stop-color="#8D77DA"/>
<stop offset="1" stop-color="#FE3DCE"/>
</linearGradient>
</defs>
</svg>
