<svg width="1440" height="635" viewBox="0 0 1440 635" fill="none" xmlns="http://www.w3.org/2000/svg">
<g opacity="0.55" filter="url(#filter0_f_43_704)">
<ellipse cx="379" cy="379.5" rx="379" ry="379.5" transform="matrix(-1 8.74228e-08 8.74228e-08 1 566 -43)" fill="#28ADE5"/>
</g>
<g filter="url(#filter1_f_43_704)">
<circle cx="302.775" cy="302.775" r="302.775" transform="matrix(-1 8.74228e-08 8.74228e-08 1 868.55 -269)" fill="#6CCFFE"/>
</g>
<g opacity="0.43" filter="url(#filter2_f_43_704)">
<circle cx="302.775" cy="302.775" r="302.775" transform="matrix(-1 8.74228e-08 8.74228e-08 1 960.55 238)" fill="#8D77DA"/>
</g>
<g opacity="0.81" filter="url(#filter3_f_43_704)">
<circle cx="291.366" cy="291.366" r="291.366" transform="matrix(-1 8.74228e-08 8.74228e-08 1 960.733 -171)" fill="white"/>
</g>
<g opacity="0.53" filter="url(#filter4_f_43_704)">
<circle cx="302.775" cy="302.775" r="302.775" transform="matrix(-1 8.74228e-08 8.74228e-08 1 1709.55 85)" fill="#FE3DCE"/>
</g>
<g filter="url(#filter5_f_43_704)">
<circle cx="302.775" cy="302.775" r="302.775" transform="matrix(-1 8.74228e-08 8.74228e-08 1 1327.32 191.799)" fill="#F7A2CF" fill-opacity="0.36"/>
</g>
<g opacity="0.69" filter="url(#filter6_f_43_704)">
<ellipse cx="323.399" cy="256.262" rx="323.399" ry="256.262" transform="matrix(-1 8.74228e-08 8.74228e-08 1 1368.56 238.313)" fill="#8D77DA"/>
</g>
<rect x="-0.292445" y="1.38365" width="613.204" height="459.15" transform="matrix(-0.838045 0.5456 0.5456 0.838045 1600.11 15.7834)" fill="url(#paint0_linear_43_704)" stroke="url(#paint1_linear_43_704)" stroke-width="2"/>
<rect x="642.661" y="16.7835" width="613.204" height="843.699" transform="rotate(33.0657 642.661 16.7835)" fill="url(#paint2_linear_43_704)" stroke="url(#paint3_linear_43_704)" stroke-width="2"/>
<defs>
<filter id="filter0_f_43_704" x="-424" y="-275" width="1222" height="1223" filterUnits="userSpaceOnUse" color-interpolation-filters="sRGB">
<feFlood flood-opacity="0" result="BackgroundImageFix"/>
<feBlend mode="normal" in="SourceGraphic" in2="BackgroundImageFix" result="shape"/>
<feGaussianBlur stdDeviation="116" result="effect1_foregroundBlur_43_704"/>
</filter>
<filter id="filter1_f_43_704" x="30.9998" y="-501" width="1069.55" height="1069.55" filterUnits="userSpaceOnUse" color-interpolation-filters="sRGB">
<feFlood flood-opacity="0" result="BackgroundImageFix"/>
<feBlend mode="normal" in="SourceGraphic" in2="BackgroundImageFix" result="shape"/>
<feGaussianBlur stdDeviation="116" result="effect1_foregroundBlur_43_704"/>
</filter>
<filter id="filter2_f_43_704" x="123" y="6" width="1069.55" height="1069.55" filterUnits="userSpaceOnUse" color-interpolation-filters="sRGB">
<feFlood flood-opacity="0" result="BackgroundImageFix"/>
<feBlend mode="normal" in="SourceGraphic" in2="BackgroundImageFix" result="shape"/>
<feGaussianBlur stdDeviation="116" result="effect1_foregroundBlur_43_704"/>
</filter>
<filter id="filter3_f_43_704" x="146" y="-403" width="1046.73" height="1046.73" filterUnits="userSpaceOnUse" color-interpolation-filters="sRGB">
<feFlood flood-opacity="0" result="BackgroundImageFix"/>
<feBlend mode="normal" in="SourceGraphic" in2="BackgroundImageFix" result="shape"/>
<feGaussianBlur stdDeviation="116" result="effect1_foregroundBlur_43_704"/>
</filter>
<filter id="filter4_f_43_704" x="812" y="-207" width="1189.55" height="1189.55" filterUnits="userSpaceOnUse" color-interpolation-filters="sRGB">
<feFlood flood-opacity="0" result="BackgroundImageFix"/>
<feBlend mode="normal" in="SourceGraphic" in2="BackgroundImageFix" result="shape"/>
<feGaussianBlur stdDeviation="146" result="effect1_foregroundBlur_43_704"/>
</filter>
<filter id="filter5_f_43_704" x="489.765" y="-40.2006" width="1069.55" height="1069.55" filterUnits="userSpaceOnUse" color-interpolation-filters="sRGB">
<feFlood flood-opacity="0" result="BackgroundImageFix"/>
<feBlend mode="normal" in="SourceGraphic" in2="BackgroundImageFix" result="shape"/>
<feGaussianBlur stdDeviation="116" result="effect1_foregroundBlur_43_704"/>
</filter>
<filter id="filter6_f_43_704" x="489.765" y="6.31274" width="1110.8" height="976.524" filterUnits="userSpaceOnUse" color-interpolation-filters="sRGB">
<feFlood flood-opacity="0" result="BackgroundImageFix"/>
<feBlend mode="normal" in="SourceGraphic" in2="BackgroundImageFix" result="shape"/>
<feGaussianBlur stdDeviation="116" result="effect1_foregroundBlur_43_704"/>
</filter>
<linearGradient id="paint0_linear_43_704" x1="619.967" y1="34.6457" x2="-153.437" y2="230.074" gradientUnits="userSpaceOnUse">
<stop stop-color="white" stop-opacity="0.11"/>
<stop offset="1" stop-color="white" stop-opacity="0"/>
</linearGradient>
<linearGradient id="paint1_linear_43_704" x1="605.748" y1="5.00779" x2="167.597" y2="20.634" gradientUnits="userSpaceOnUse">
<stop stop-color="white" stop-opacity="0.25"/>
<stop offset="1" stop-color="white" stop-opacity="0"/>
</linearGradient>
<linearGradient id="paint2_linear_43_704" x1="1262.33" y1="78.9363" x2="454.879" y2="190.193" gradientUnits="userSpaceOnUse">
<stop stop-color="white" stop-opacity="0.11"/>
<stop offset="1" stop-color="white" stop-opacity="0"/>
</linearGradient>
<linearGradient id="paint3_linear_43_704" x1="1142.89" y1="44.8484" x2="810.039" y2="48.3537" gradientUnits="userSpaceOnUse">
<stop stop-color="white" stop-opacity="0"/>
<stop offset="0.265625" stop-color="white" stop-opacity="0.27"/>
<stop offset="1" stop-color="white" stop-opacity="0"/>
</linearGradient>
</defs>
</svg>
