<svg width="25" height="24" viewBox="0 0 25 24" fill="none" xmlns="http://www.w3.org/2000/svg">
<g opacity="0.3" clip-path="url(#clip0_203_261)">
<circle cx="12.5517" cy="12" r="12" fill="url(#paint0_linear_203_261)"/>
<path d="M16.3643 16.991C16.3643 16.991 15.8679 16.4277 15.4557 15.9358C17.2543 15.4528 17.9381 14.3797 17.9381 14.3797C17.3761 14.7285 16.8421 14.9789 16.3643 15.1488C15.6805 15.426 15.0247 15.6049 14.3784 15.7122C13.0669 15.9447 11.8585 15.8821 10.8281 15.7033C10.0505 15.5602 9.37607 15.3545 8.81401 15.1399C8.49551 15.0236 8.15828 14.8805 7.81167 14.6927C7.7742 14.6658 7.72736 14.6569 7.68989 14.6301C7.66179 14.6211 7.65242 14.6033 7.63368 14.5943C7.39013 14.4602 7.24961 14.3708 7.24961 14.3708C7.24961 14.3708 7.90534 15.4171 9.64773 15.9179C9.23556 16.4187 8.7297 17 8.7297 17C5.70395 16.9016 4.55173 14.9968 4.55173 14.9968C4.55173 10.7846 6.5283 7.36836 6.5283 7.36836C8.49551 5.96431 10.3784 6.00008 10.3784 6.00008L10.5189 6.16106C8.04586 6.84073 6.91238 7.86917 6.91238 7.86917C6.91238 7.86917 7.21214 7.7082 7.71799 7.49357C9.17935 6.8765 10.3503 6.70658 10.8281 6.67081C10.9124 6.66186 10.9779 6.64398 11.0622 6.64398C11.8959 6.53667 12.8421 6.50984 13.8257 6.61715C15.1278 6.76024 16.5236 7.1269 17.9475 7.86917C17.9475 7.86917 16.8608 6.88544 14.5376 6.20577L14.725 6.00008C14.725 6.00008 16.5985 5.96431 18.5751 7.37731C18.5751 7.37731 20.5517 10.7935 20.5517 15.0057C20.561 14.9968 19.3901 16.9016 16.3643 16.991ZM9.99433 10.883C9.21682 10.883 8.59855 11.5358 8.59855 12.3317C8.59855 13.1277 9.22619 13.7805 9.99433 13.7805C10.7719 13.7805 11.3901 13.1277 11.3901 12.3317C11.3995 11.5358 10.7719 10.883 9.99433 10.883ZM14.9967 10.883C14.2191 10.883 13.6009 11.5358 13.6009 12.3317C13.6009 13.1277 14.2285 13.7805 14.9967 13.7805C15.7742 13.7805 16.3925 13.1277 16.3925 12.3317C16.3925 11.5358 15.7742 10.883 14.9967 10.883Z" fill="white"/>
</g>
<defs>
<linearGradient id="paint0_linear_203_261" x1="0.551727" y1="0" x2="25.0039" y2="0.992405" gradientUnits="userSpaceOnUse">
<stop stop-color="#2E22AC"/>
<stop offset="1" stop-color="#DB499E"/>
</linearGradient>
<clipPath id="clip0_203_261">
<rect width="24" height="24" fill="white" transform="translate(0.551727)"/>
</clipPath>
</defs>
</svg>
