<svg width="2652" height="1075" viewBox="0 0 2652 1075" fill="none" xmlns="http://www.w3.org/2000/svg">
<path d="M913.883 581.56C902.326 564.966 882.628 555.75 858.533 555.643C836.106 555.636 812.022 563.73 790.843 578.247C769.71 592.935 753.636 612.556 745.681 633.557C737.24 656.148 738.843 677.779 750.337 694.48C755.218 701.468 761.356 707.024 768.689 711.258C779.042 717.236 791.569 720.442 805.794 720.459C828.221 720.466 852.244 712.48 873.377 697.793C894.556 683.275 910.629 663.654 918.476 642.59C927.088 619.955 925.377 598.261 913.883 581.56Z" fill="black"/>
<path d="M722.235 512.036C725.756 515.65 729.866 518.742 734.18 521.233C748.307 529.389 766.12 531.909 785.536 528.165C809.342 523.791 833.188 510.383 852.613 490.684C872.039 470.984 885.027 446.993 889.196 423.087C893.68 397.637 887.664 375.183 872.178 359.916C841.729 329.971 783.195 339.456 741.738 381.376C699.737 423.989 691.156 481.439 722.235 512.036Z" fill="black"/>
<path d="M355.754 697.017C375.537 725.262 407.015 742.717 442.082 744.989C478.538 747.345 510.891 766.023 531.051 796.355C541.131 811.521 554.344 823.751 569.55 832.53C583.569 840.624 599.332 845.699 615.868 847.194C650.992 850.362 685.546 836.09 708.433 808.899C741.522 769.769 743.656 713.773 713.937 672.601C700.949 654.75 695.381 632.268 698.308 609.514C702.867 574.473 697.256 526.66 645.924 497.023L644.845 496.4C606.591 474.745 564.515 478.635 523.116 507.504C503.485 521.333 480.799 527.503 459.248 524.982C408.165 519.07 360.182 548.883 342.527 597.643C330.423 631.06 335.448 668.182 355.754 697.017Z" fill="black"/>
<path d="M475.754 477.715C489.964 460.325 499.028 436.656 501.073 410.948C505.521 355.426 477.322 309.381 436.684 306.049C396.092 302.887 360.725 343.722 356.277 399.245C354.231 424.952 359.218 449.687 370.546 469.168C377.565 481.417 386.714 490.725 396.959 496.64C404.292 500.874 412.281 503.473 420.665 504.144C440.876 505.748 460.518 496.382 475.754 477.715Z" fill="black"/>
<path d="M579.274 431.654C583.48 434.082 587.935 436.079 592.825 437.321C634.091 448.78 680.438 411.84 696.121 355.039C711.804 298.238 690.859 242.866 649.485 231.344C616.997 222.365 581.317 243.32 560.024 280.202C554.171 290.339 549.426 301.547 546.128 313.734C532.235 363.947 547.029 413.037 579.274 431.654Z" fill="black"/>
<circle cx="589.472" cy="592.323" r="135.708" transform="rotate(30 589.472 592.323)" fill="white" stroke="url(#paint0_linear_25_37)" stroke-width="14.4539" stroke-linecap="round"/>
<circle cx="589.472" cy="592.324" r="93.8333" transform="rotate(30 589.472 592.324)" fill="url(#paint1_linear_25_37)" stroke="url(#paint2_linear_25_37)" stroke-width="10.2235" stroke-linecap="round"/>
<g clip-path="url(#clip0_25_37)">
<path d="M573.234 568.23L606.435 559.071L615.109 592.421L634.428 587.091L620.712 534.344L568.191 548.834L573.234 568.23ZM535.23 557.925L554.55 552.595L559.594 571.99L540.274 577.32L535.23 557.925ZM563.154 585.688L571.823 619.021L605.041 609.858L610.095 629.25L610.085 629.254L557.547 643.748L543.834 591.019L543.827 590.991L563.154 585.688ZM618.665 606.105L637.985 600.776L643.029 620.171L623.709 625.5L618.665 606.105Z" fill="white"/>
<path d="M601.489 596.173L601.494 596.176L596.376 576.495L581.888 580.491L581.888 580.491L580.223 580.951L576.79 581.898L576.763 581.905L576.769 581.933L581.883 601.597L601.487 596.189L601.497 596.186L601.489 596.173" fill="white"/>
</g>
<path d="M1301.66 789.765C1267.63 789.765 1236.06 784.435 1206.95 773.775C1178.25 762.705 1153.24 747.125 1131.92 727.035C1111.01 706.945 1094.61 683.371 1082.72 656.311C1070.83 628.841 1064.88 598.706 1064.88 565.907C1064.88 533.107 1070.83 503.177 1082.72 476.118C1094.61 448.648 1111.01 424.868 1131.92 404.778C1153.24 384.688 1178.25 369.314 1206.95 358.654C1236.06 347.584 1267.63 342.049 1301.66 342.049C1341.42 342.049 1376.89 349.019 1408.05 362.959C1439.62 376.899 1465.86 396.988 1486.77 423.228L1409.28 493.337C1395.34 476.938 1379.96 464.433 1363.15 455.823C1346.75 447.213 1328.3 442.908 1307.81 442.908C1290.18 442.908 1273.98 445.778 1259.22 451.518C1244.46 457.258 1231.75 465.663 1221.09 476.733C1210.84 487.392 1202.64 500.307 1196.49 515.477C1190.75 530.647 1187.88 547.457 1187.88 565.907C1187.88 584.357 1190.75 601.166 1196.49 616.336C1202.64 631.506 1210.84 644.626 1221.09 655.696C1231.75 666.356 1244.46 674.556 1259.22 680.296C1273.98 686.036 1290.18 688.906 1307.81 688.906C1328.3 688.906 1346.75 684.601 1363.15 675.991C1379.96 667.381 1395.34 654.876 1409.28 638.476L1486.77 708.585C1465.86 734.415 1439.62 754.505 1408.05 768.855C1376.89 782.795 1341.42 789.765 1301.66 789.765Z" fill="url(#paint3_linear_25_37)"/>
<path d="M1482.19 781.155L1672.23 350.659H1792.15L1982.8 781.155H1856.11L1707.28 410.313H1755.25L1606.42 781.155H1482.19ZM1586.13 697.516L1617.49 607.726H1827.82L1859.19 697.516H1586.13Z" fill="url(#paint4_linear_25_37)"/>
<path d="M2087.33 781.155V447.213H1955.11V350.659H2340.71V447.213H2209.1V781.155H2087.33Z" fill="url(#paint5_linear_25_37)"/>
<defs>
<linearGradient id="paint0_linear_25_37" x1="460.991" y1="463.843" x2="722.794" y2="474.468" gradientUnits="userSpaceOnUse">
<stop stop-color="#2E22AC"/>
<stop offset="1" stop-color="#DB499E"/>
</linearGradient>
<linearGradient id="paint1_linear_25_37" x1="495.639" y1="498.491" x2="686.842" y2="506.251" gradientUnits="userSpaceOnUse">
<stop stop-color="#2E22AC"/>
<stop offset="1" stop-color="#DB499E"/>
</linearGradient>
<linearGradient id="paint2_linear_25_37" x1="495.639" y1="498.491" x2="686.842" y2="506.251" gradientUnits="userSpaceOnUse">
<stop stop-color="#2E22AC"/>
<stop offset="1" stop-color="#DB499E"/>
</linearGradient>
<linearGradient id="paint3_linear_25_37" x1="1064.88" y1="342.049" x2="2349.71" y2="490.644" gradientUnits="userSpaceOnUse">
<stop stop-color="#2E22AC"/>
<stop offset="1" stop-color="#DB499E"/>
</linearGradient>
<linearGradient id="paint4_linear_25_37" x1="1064.88" y1="342.049" x2="2349.71" y2="490.644" gradientUnits="userSpaceOnUse">
<stop stop-color="#2E22AC"/>
<stop offset="1" stop-color="#DB499E"/>
</linearGradient>
<linearGradient id="paint5_linear_25_37" x1="1064.88" y1="342.049" x2="2349.71" y2="490.644" gradientUnits="userSpaceOnUse">
<stop stop-color="#2E22AC"/>
<stop offset="1" stop-color="#DB499E"/>
</linearGradient>
<clipPath id="clip0_25_37">
<rect width="124.479" height="126.329" fill="white" transform="translate(566.811 503.225) rotate(30)"/>
</clipPath>
</defs>
</svg>
