<svg width="25" height="24" viewBox="0 0 25 24" fill="none" xmlns="http://www.w3.org/2000/svg">
<g clip-path="url(#clip0_203_260)">
<circle cx="12.5172" cy="12" r="12" fill="url(#paint0_linear_203_260)"/>
<g clip-path="url(#clip1_203_260)">
<path fill-rule="evenodd" clip-rule="evenodd" d="M8.69437 7.48183C9.10105 7.81224 9.25361 7.78703 10.0173 7.73607L17.2168 7.30377C17.3695 7.30377 17.2425 7.15144 17.1916 7.12613L15.9959 6.26174C15.7668 6.08387 15.4616 5.88017 14.8766 5.93112L7.90527 6.43959C7.65102 6.4648 7.60025 6.59192 7.70149 6.69381L8.69437 7.48183ZM9.12662 9.15967V16.7348C9.12662 17.1419 9.33006 17.2942 9.78795 17.2691L17.7002 16.8112C18.1583 16.786 18.2094 16.506 18.2094 16.1753V8.65098C18.2094 8.3208 18.0824 8.14275 17.8019 8.16816L9.53353 8.65098C9.22838 8.67663 9.12659 8.82926 9.12659 9.15967H9.12662ZM16.9376 9.56602C16.9883 9.79503 16.9376 10.0238 16.7081 10.0496L16.3269 10.1255V15.718C15.9959 15.8959 15.6907 15.9976 15.4364 15.9976C15.0291 15.9976 14.9271 15.8704 14.6221 15.4893L12.1284 11.5746V15.3622L12.9175 15.5403C12.9175 15.5403 12.9175 15.9976 12.2809 15.9976L10.5258 16.0994C10.4749 15.9976 10.5258 15.7436 10.7039 15.6927L11.1619 15.5658V10.5578L10.526 10.5069C10.475 10.2778 10.602 9.94764 10.9584 9.92202L12.8412 9.79511L15.4364 13.7608V10.2526L14.7747 10.1767C14.7239 9.89674 14.9271 9.69345 15.1816 9.66824L16.9376 9.56602ZM7.31995 5.75328L14.5712 5.21927C15.4617 5.1429 15.6908 5.19406 16.2505 5.60061L18.5652 7.2275C18.9471 7.50727 19.0744 7.58343 19.0744 7.8884V16.8112C19.0744 17.3704 18.8707 17.7012 18.1585 17.7517L9.73756 18.2603C9.20291 18.2858 8.94846 18.2096 8.66847 17.8535L6.96389 15.6419C6.65848 15.2347 6.53146 14.9302 6.53146 14.5739V6.64267C6.53146 6.18537 6.73524 5.8039 7.31995 5.75328Z" fill="white"/>
</g>
</g>
<defs>
<linearGradient id="paint0_linear_203_260" x1="0.517242" y1="0" x2="24.9694" y2="0.992405" gradientUnits="userSpaceOnUse">
<stop stop-color="#2E22AC"/>
<stop offset="1" stop-color="#DB499E"/>
</linearGradient>
<clipPath id="clip0_203_260">
<rect width="24" height="24" fill="white" transform="translate(0.517242)"/>
</clipPath>
<clipPath id="clip1_203_260">
<rect width="13.1429" height="13.1429" fill="white" transform="translate(6.23154 5.14282)"/>
</clipPath>
</defs>
</svg>
