<svg width="18" height="18" viewBox="0 0 18 18" fill="none" xmlns="http://www.w3.org/2000/svg">
<path d="M16.6519 3.10352H1.34807C0.603527 3.10352 0 3.70704 0 4.45158V13.5486C0 14.2931 0.603527 14.8967 1.34807 14.8967H16.6519C17.3964 14.8967 18 14.2932 18 13.5486V4.45158C18 3.70704 17.3965 3.10352 16.6519 3.10352Z" fill="#FF4B55"/>
<path d="M2.98855 4.94747L3.28442 5.8346L4.21958 5.84184C4.34066 5.84276 4.39086 5.99731 4.29344 6.0692L3.54117 6.6247L3.82323 7.51634C3.85972 7.63179 3.72831 7.72724 3.6298 7.65686L2.86902 7.11302L2.10824 7.65682C2.00973 7.72724 1.87832 7.63172 1.91481 7.5163L2.19687 6.62467L1.44459 6.0692C1.34717 5.99727 1.39738 5.84276 1.51846 5.84184L2.45361 5.8346L2.74949 4.94747C2.78781 4.83261 2.95026 4.83261 2.98855 4.94747Z" fill="#FFE15A"/>
<path d="M6.38437 5.16609L6.59654 5.45536L6.93892 5.34827C6.98326 5.33442 7.01971 5.38497 6.99257 5.42263L6.78297 5.71376L6.9906 6.00629C7.0175 6.04415 6.98069 6.09446 6.93646 6.08029L6.59478 5.97092L6.38071 6.25882C6.35301 6.29608 6.29377 6.27661 6.2936 6.2302L6.29201 5.87143L5.95205 5.75679C5.90804 5.74192 5.90825 5.67962 5.95237 5.66506L6.29303 5.5527L6.29704 5.19397C6.29753 5.14767 6.35691 5.12865 6.38437 5.16609Z" fill="#FFE15A"/>
<path d="M5.09265 4.30373L5.44927 4.34247L5.60143 4.01759C5.62115 3.97554 5.68306 3.98275 5.69252 4.02821L5.76585 4.37935L6.12185 4.42365C6.16794 4.42938 6.18021 4.49048 6.13988 4.51357L5.82857 4.69182L5.89646 5.04408C5.90525 5.08972 5.85093 5.12023 5.81651 5.08905L5.55077 4.84805L5.23675 5.02144C5.19611 5.04391 5.15023 5.00165 5.16929 4.95929L5.31635 4.63205L5.05436 4.38694C5.02051 4.35537 5.04649 4.29873 5.09265 4.30373Z" fill="#FFE15A"/>
<path d="M5.65649 7.78036L5.44436 8.0697L5.10197 7.96261C5.05764 7.94876 5.02118 7.99928 5.04832 8.03697L5.25793 8.3281L5.05029 8.62063C5.0234 8.65849 5.06021 8.7088 5.10443 8.69463L5.44608 8.58526L5.66015 8.87316C5.68785 8.91042 5.74709 8.89095 5.74727 8.84454L5.74885 8.48577L6.08881 8.37113C6.13282 8.35626 6.13261 8.29396 6.08849 8.2794L5.74783 8.16704L5.74382 7.80831C5.74326 7.76194 5.68395 7.74289 5.65649 7.78036Z" fill="#FFE15A"/>
<path d="M6.94814 6.96999L6.59148 7.00873L6.43932 6.68385C6.4196 6.6418 6.35773 6.64901 6.34823 6.69447L6.27486 7.04561L5.91887 7.0899C5.87278 7.09564 5.86051 7.15674 5.90084 7.17983L6.21215 7.35808L6.14426 7.71034C6.13547 7.75598 6.18979 7.78649 6.2242 7.75531L6.48995 7.51431L6.80397 7.6877C6.84461 7.71017 6.89049 7.66791 6.87143 7.62555L6.72437 7.29831L6.98636 7.0532C7.02035 7.02163 6.99437 6.96499 6.94814 6.96999Z" fill="#FFE15A"/>
</svg>
