<svg width="18" height="18" viewBox="0 0 18 18" fill="none" xmlns="http://www.w3.org/2000/svg">
<path d="M16.6519 3.10352H1.34807C0.603527 3.10352 0 3.70704 0 4.45158V7.03455H18V4.45158C18 3.70704 17.3965 3.10352 16.6519 3.10352Z" fill="#FAB446"/>
<path d="M0 13.5485C0 14.293 0.603527 14.8966 1.34807 14.8966H16.6519C17.3964 14.8966 18 14.2931 18 13.5485V10.9656H0V13.5485Z" fill="#73AF00"/>
<path d="M18 7.03442H0V10.9652H18V7.03442Z" fill="#F5F5F5"/>
<path d="M9 10.668C8.08017 10.668 7.33191 9.91971 7.33191 8.99988C7.33191 8.08005 8.08017 7.33179 9 7.33179C9.91983 7.33179 10.6681 8.08005 10.6681 8.99988C10.6681 9.91971 9.91983 10.668 9 10.668ZM9 7.64211C8.25125 7.64211 7.64223 8.25112 7.64223 8.99988C7.64223 9.74864 8.25125 10.3577 9 10.3577C9.74876 10.3577 10.3578 9.74864 10.3578 8.99988C10.3578 8.25112 9.74876 7.64211 9 7.64211Z" fill="#41479B"/>
<path d="M8.99999 9.189C9.10443 9.189 9.18909 9.10434 9.18909 8.9999C9.18909 8.89546 9.10443 8.81079 8.99999 8.81079C8.89555 8.81079 8.81088 8.89546 8.81088 8.9999C8.81088 9.10434 8.89555 9.189 8.99999 9.189Z" fill="#41479B"/>
<path d="M9.00001 9.02835L8.51942 9.07687L7.48709 9.02835V8.97161L8.51942 8.9231L9.00001 8.97161V9.02835Z" fill="#41479B"/>
<path d="M9 9.02835L9.48059 9.07687L10.5129 9.02835V8.97161L9.48059 8.9231L9 8.97161V9.02835Z" fill="#41479B"/>
<path d="M8.97164 8.99997L8.92313 8.51939L8.97164 7.48706H9.02838L9.0769 8.51939L9.02838 8.99997H8.97164Z" fill="#41479B"/>
<path d="M8.97164 9L8.92313 9.48059L8.97164 10.5129H9.02838L9.0769 9.48059L9.02838 9H8.97164Z" fill="#41479B"/>
<path d="M8.97996 9.02004L8.60583 8.71457L7.91016 7.95027L7.95027 7.91016L8.71457 8.60583L9.02004 8.97996L8.97996 9.02004Z" fill="#41479B"/>
<path d="M8.97995 9.01981L9.28542 9.39395L10.0497 10.0896L10.0898 10.0495L9.39416 9.28521L9.02003 8.97974L8.97995 9.01981Z" fill="#41479B"/>
<path d="M8.97995 8.97996L9.28542 8.60583L10.0497 7.91016L10.0898 7.95027L9.39416 8.71457L9.02003 9.02004L8.97995 8.97996Z" fill="#41479B"/>
<path d="M8.97996 8.97974L8.60583 9.28521L7.91016 10.0495L7.95027 10.0896L8.71457 9.39395L9.02004 9.01981L8.97996 8.97974Z" fill="#41479B"/>
<path d="M9.01087 9.02609L8.58541 9.25481L7.61313 9.60504L7.5914 9.55262L8.52659 9.11275L8.98914 8.97363L9.01087 9.02609Z" fill="#41479B"/>
<path d="M9.01086 9.02618L9.47341 8.88707L10.4086 8.44719L10.3869 8.39478L9.4146 8.745L8.98914 8.97373L9.01086 9.02618Z" fill="#41479B"/>
<path d="M8.97379 9.01078L8.74506 8.58532L8.39484 7.61304L8.44725 7.59131L8.88713 8.5265L9.02624 8.98905L8.97379 9.01078Z" fill="#41479B"/>
<path d="M8.97379 9.01074L9.1129 9.47329L9.55277 10.4085L9.60519 10.3868L9.25497 9.41447L9.02624 8.98901L8.97379 9.01074Z" fill="#41479B"/>
<path d="M8.98914 9.02618L8.52659 8.88707L7.5914 8.44719L7.61313 8.39478L8.58541 8.745L9.01087 8.97373L8.98914 9.02618Z" fill="#41479B"/>
<path d="M8.98914 9.02609L9.4146 9.25481L10.3869 9.60504L10.4086 9.55262L9.47341 9.11275L9.01086 8.97363L8.98914 9.02609Z" fill="#41479B"/>
<path d="M8.97379 8.98905L9.1129 8.5265L9.55277 7.59131L9.60519 7.61304L9.25497 8.58532L9.02624 9.01078L8.97379 8.98905Z" fill="#41479B"/>
<path d="M8.97379 8.98901L8.74506 9.41447L8.39484 10.3868L8.44725 10.4085L8.88713 9.47329L9.02624 9.01074L8.97379 8.98901Z" fill="#41479B"/>
<path d="M9 9.25506C9.14088 9.25506 9.25509 9.14085 9.25509 8.99997C9.25509 8.85908 9.14088 8.74487 9 8.74487C8.85911 8.74487 8.7449 8.85908 8.7449 8.99997C8.7449 9.14085 8.85911 9.25506 9 9.25506Z" fill="#F5F5F5"/>
<path d="M9.00001 9.15285C9.08449 9.15285 9.15298 9.08437 9.15298 8.99989C9.15298 8.91541 9.08449 8.84692 9.00001 8.84692C8.91553 8.84692 8.84705 8.91541 8.84705 8.99989C8.84705 9.08437 8.91553 9.15285 9.00001 9.15285Z" fill="#41479B"/>
</svg>
