<svg width="18" height="18" viewBox="0 0 18 18" fill="none" xmlns="http://www.w3.org/2000/svg">
<path d="M16.6519 3.10352H1.34807C0.603527 3.10352 0 3.70704 0 4.45158V13.5486C0 14.2931 0.603527 14.8967 1.34807 14.8967H16.6519C17.3964 14.8967 18 14.2932 18 13.5486V4.45158C18 3.70704 17.3965 3.10352 16.6519 3.10352Z" fill="#82C3D2"/>
<path d="M2.09236 4.51564C2.06427 4.39675 2.05727 4.35287 2.11064 4.29954C2.13665 4.27352 2.13665 4.23137 2.11064 4.20536C2.08462 4.17934 2.04247 4.17934 2.01645 4.20536C1.90845 4.31339 1.93422 4.4255 1.96217 4.54419C1.87702 4.51638 1.78871 4.53702 1.74139 4.59671C1.71791 4.62649 1.67248 4.71002 1.7576 4.84341C1.77739 4.87438 1.81831 4.88348 1.84957 4.86387C1.88061 4.84407 1.88964 4.80284 1.86985 4.7719C1.83793 4.72166 1.83698 4.69069 1.84591 4.67937C1.85646 4.66597 1.88915 4.65891 1.92339 4.67103C1.94551 4.6787 1.99691 4.70524 1.99691 4.7854C1.99691 4.84942 1.96731 4.90809 1.9157 4.94624C1.86398 4.98449 1.79704 4.99528 1.73253 4.97524C1.65287 4.95091 1.59722 4.867 1.59722 4.77112C1.59722 4.70253 1.61191 4.63321 1.63891 4.57246C1.6432 4.56349 1.74501 4.35259 1.77124 4.27398C1.82309 4.11848 1.77039 4.0403 1.73443 4.00764C1.6863 3.9638 1.61595 3.95286 1.55541 3.97941C1.5462 3.98348 1.53861 3.98939 1.53063 3.99487C1.52265 3.98936 1.51502 3.98348 1.50584 3.97941C1.44534 3.95286 1.37503 3.96376 1.32683 4.00764C1.29086 4.0403 1.23816 4.11852 1.29002 4.27398C1.31625 4.35259 1.41802 4.56349 1.42143 4.57052C1.44931 4.63324 1.46404 4.70257 1.46404 4.77116C1.46404 4.86707 1.40843 4.95095 1.32873 4.97528C1.26397 4.99528 1.19724 4.98463 1.14556 4.94627C1.09395 4.90813 1.06435 4.84949 1.06435 4.78543C1.06435 4.70528 1.11575 4.67877 1.13786 4.67107C1.17221 4.65898 1.20473 4.66597 1.21535 4.6794C1.22428 4.69072 1.22333 4.72169 1.19141 4.77193C1.17161 4.80291 1.18065 4.84418 1.21169 4.8639C1.24298 4.88369 1.28404 4.87445 1.30366 4.84344C1.38877 4.71006 1.34335 4.62656 1.31987 4.59675C1.27251 4.53705 1.18423 4.51638 1.09909 4.54423C1.12707 4.42557 1.15281 4.31339 1.04481 4.20539C1.01879 4.17937 0.976637 4.17937 0.950622 4.20539C0.924606 4.23141 0.924606 4.27356 0.950622 4.29957C1.00395 4.35291 0.997028 4.39675 0.968903 4.51568C0.951993 4.58694 0.93104 4.67582 0.93104 4.78536C0.93104 4.85828 0.956633 4.92796 0.99977 4.98523H0.997625C0.960817 4.98523 0.931004 5.015 0.931004 5.05185C0.931004 5.08869 0.960782 5.11847 0.997625 5.11847H0.99977C0.956633 5.1757 0.93104 5.24542 0.93104 5.3183C0.93104 5.42784 0.951993 5.51672 0.968833 5.58802C0.996922 5.70695 1.00392 5.75079 0.950551 5.80412C0.924536 5.83014 0.924536 5.87229 0.950551 5.8983C0.963559 5.91131 0.98061 5.91782 0.997661 5.91782C1.01468 5.91782 1.03176 5.91131 1.04477 5.8983C1.15277 5.79027 1.127 5.67812 1.09905 5.55947C1.1842 5.58717 1.27251 5.56664 1.31983 5.50694C1.34332 5.47717 1.38874 5.39364 1.30363 5.26025C1.2839 5.22928 1.24273 5.22007 1.21166 5.23979C1.18061 5.25959 1.17158 5.30082 1.19137 5.33176C1.22329 5.382 1.22424 5.41297 1.21531 5.42429C1.20473 5.43755 1.17218 5.44458 1.13783 5.43262C1.11572 5.42496 1.06432 5.39842 1.06432 5.31826C1.06432 5.25424 1.09392 5.19557 1.14553 5.15746C1.19724 5.11921 1.26411 5.10827 1.32869 5.12845C1.40836 5.15278 1.46401 5.2367 1.46401 5.33257C1.46401 5.40116 1.44931 5.47049 1.4214 5.53321L0.985075 6.51477C0.949215 6.59545 0.931004 6.6812 0.931004 6.76951C0.931004 6.88317 0.982684 6.98695 1.06404 7.0503C0.982719 7.11366 0.931004 7.21744 0.931004 7.3311C0.931004 7.41945 0.94925 7.50519 0.985075 7.58584L1.42133 8.56737C1.44921 8.63009 1.46394 8.69941 1.46394 8.768C1.46394 8.86391 1.40832 8.94779 1.32862 8.97212C1.26386 8.9923 1.19714 8.98151 1.14546 8.94312C1.09385 8.90497 1.06425 8.84633 1.06425 8.78231C1.06425 8.70216 1.11564 8.67565 1.13776 8.66795C1.17211 8.65596 1.20463 8.66285 1.21524 8.67628C1.22417 8.6876 1.22322 8.71857 1.1913 8.76881C1.17151 8.79978 1.18054 8.84099 1.21159 8.86078C1.24288 8.88057 1.28394 8.87143 1.30356 8.84032C1.38867 8.70694 1.34325 8.62344 1.31976 8.59363C1.27241 8.5339 1.18413 8.51337 1.09898 8.54111C1.12697 8.42245 1.1527 8.31027 1.0447 8.20227C1.01868 8.17625 0.976532 8.17625 0.950516 8.20227C0.9245 8.22829 0.9245 8.27044 0.950516 8.29645C1.00385 8.34979 0.996922 8.39362 0.968797 8.51256C0.951957 8.58378 0.931004 8.67266 0.931004 8.78221C0.931004 8.85509 0.956598 8.9248 0.999735 8.98207H0.99759C0.960782 8.98207 0.930969 9.01185 0.930969 9.04869C0.930969 9.0855 0.960747 9.11531 0.99759 9.11531H0.999735C0.956598 9.17258 0.931004 9.24226 0.931004 9.31518C0.931004 9.42472 0.951957 9.5136 0.968797 9.58489C0.996887 9.70383 1.00388 9.74767 0.950516 9.801C0.9245 9.82702 0.9245 9.86917 0.950516 9.89518C0.963524 9.90819 0.980575 9.91469 0.997625 9.91469C1.01464 9.91469 1.03173 9.90819 1.04473 9.89518C1.15273 9.78715 1.12697 9.675 1.09902 9.55635C1.18416 9.58405 1.27248 9.56352 1.3198 9.50382C1.34328 9.47405 1.3887 9.39052 1.30359 9.25713C1.28387 9.22616 1.2427 9.21695 1.21162 9.23667C1.18058 9.25646 1.17154 9.2977 1.19134 9.32864C1.22326 9.37888 1.22421 9.40985 1.21528 9.42117C1.2047 9.43457 1.17214 9.44156 1.13779 9.4295C1.11568 9.42184 1.06428 9.3953 1.06428 9.31514C1.06428 9.25112 1.09388 9.19245 1.14549 9.15434C1.19721 9.11609 1.26407 9.10515 1.32866 9.12533C1.40832 9.14966 1.46397 9.23358 1.46397 9.32945C1.46397 9.39804 1.44928 9.46737 1.42136 9.53009L0.985075 10.5118C0.949215 10.5924 0.931004 10.6782 0.931004 10.7665C0.931004 10.8802 0.982684 10.984 1.06404 11.0473C0.982719 11.1106 0.931004 11.2145 0.931004 11.3281C0.931004 11.4165 0.94925 11.5022 0.985075 11.5829L1.42133 12.5644C1.44921 12.6271 1.46394 12.6964 1.46394 12.765C1.46394 12.8609 1.40832 12.9448 1.32862 12.9691C1.26386 12.9893 1.19714 12.9784 1.14546 12.9401C1.09385 12.902 1.06425 12.8434 1.06425 12.7793C1.06425 12.6992 1.11564 12.6727 1.13776 12.665C1.17211 12.653 1.20463 12.6599 1.21524 12.6733C1.22417 12.6846 1.22322 12.7156 1.1913 12.7658C1.17151 12.7968 1.18054 12.838 1.21159 12.8578C1.24288 12.8776 1.28394 12.8685 1.30356 12.8373C1.38867 12.704 1.34325 12.6205 1.31976 12.5906C1.27241 12.5308 1.18413 12.5103 1.09898 12.5381C1.12697 12.4195 1.1527 12.3073 1.0447 12.1993C1.01868 12.1733 0.976532 12.1733 0.950516 12.1993C0.9245 12.2253 0.9245 12.2675 0.950516 12.2935C1.00385 12.3468 0.996922 12.3906 0.968797 12.5096C0.951957 12.5808 0.931004 12.6696 0.931004 12.7792C0.931004 12.8836 0.981032 12.983 1.06467 13.0457C0.981032 13.1083 0.931004 13.2077 0.931004 13.3122C0.931004 13.4217 0.951957 13.5106 0.968797 13.5819C0.996887 13.7008 1.00388 13.7447 0.950516 13.798C0.9245 13.824 0.9245 13.8662 0.950516 13.8922C0.963524 13.9052 0.980575 13.9117 0.997625 13.9117C1.01464 13.9117 1.03173 13.9052 1.04473 13.8922C1.15273 13.7841 1.12697 13.672 1.09902 13.5533C1.18416 13.581 1.27248 13.5605 1.3198 13.5008C1.34328 13.471 1.3887 13.3875 1.30359 13.2541C1.28387 13.2231 1.2427 13.214 1.21162 13.2336C1.18058 13.2534 1.17154 13.2947 1.19134 13.3256C1.22326 13.3758 1.22421 13.4068 1.21528 13.4181C1.2047 13.4315 1.17214 13.4384 1.13779 13.4265C1.11568 13.4188 1.06428 13.3922 1.06428 13.3121C1.06428 13.2481 1.09388 13.1894 1.14549 13.1512C1.19721 13.113 1.26407 13.1022 1.32866 13.1222C1.40832 13.1466 1.46397 13.2305 1.46397 13.3264C1.46397 13.395 1.44928 13.4643 1.42228 13.525C1.41799 13.534 1.31618 13.7449 1.28995 13.8235C1.23809 13.979 1.29079 14.0572 1.32676 14.0899C1.35752 14.1178 1.39714 14.1325 1.43764 14.1325C1.4606 14.1325 1.48387 14.1277 1.50581 14.1181C1.51502 14.114 1.52261 14.1081 1.53059 14.1026C1.53857 14.1082 1.5462 14.114 1.55538 14.1181C1.57728 14.1277 1.60063 14.1325 1.62355 14.1325C1.66394 14.1325 1.70363 14.1178 1.73443 14.0899C1.77039 14.0572 1.82309 13.979 1.77124 13.8235C1.74501 13.7449 1.64323 13.534 1.63982 13.527C1.61195 13.4642 1.59722 13.3949 1.59722 13.3263C1.59722 13.2304 1.65283 13.1465 1.73253 13.1222C1.79732 13.1022 1.86402 13.113 1.9157 13.1512C1.96731 13.1894 1.99691 13.248 1.99691 13.3121C1.99691 13.3922 1.94551 13.4187 1.92339 13.4264C1.88919 13.4384 1.85642 13.4315 1.84591 13.4181C1.83698 13.4068 1.83793 13.3758 1.86985 13.3256C1.88964 13.2946 1.88061 13.2534 1.84957 13.2336C1.81845 13.2141 1.77743 13.2232 1.7576 13.254C1.67248 13.3874 1.71791 13.4709 1.74139 13.5007C1.78875 13.5604 1.87702 13.581 1.96217 13.5533C1.93419 13.6719 1.90845 13.7841 2.01645 13.8921C2.02946 13.9051 2.04651 13.9116 2.06356 13.9116C2.08061 13.9116 2.09766 13.9051 2.11067 13.8921C2.13669 13.8661 2.13669 13.8239 2.11067 13.7979C2.05734 13.7446 2.06427 13.7008 2.09239 13.5818C2.10923 13.5105 2.13018 13.4217 2.13018 13.3121C2.13018 13.2077 2.08016 13.1083 1.99656 13.0456C2.08016 12.983 2.13018 12.8836 2.13018 12.7792C2.13018 12.6696 2.10923 12.5807 2.09239 12.5094C2.0643 12.3905 2.05731 12.3467 2.11067 12.2933C2.13669 12.2673 2.13669 12.2252 2.11067 12.1991C2.08466 12.1731 2.0425 12.1731 2.01649 12.1991C1.90849 12.3072 1.93426 12.4193 1.96221 12.538C1.87706 12.5102 1.78875 12.5306 1.74143 12.5905C1.71794 12.6203 1.67252 12.7038 1.75763 12.8372C1.77743 12.8682 1.81835 12.8773 1.8496 12.8577C1.88064 12.8379 1.88968 12.7966 1.86989 12.7657C1.83797 12.7155 1.83702 12.6845 1.84595 12.6732C1.85649 12.6598 1.88919 12.6529 1.92343 12.6648C1.94554 12.6725 1.99694 12.699 1.99694 12.7792C1.99694 12.8432 1.96734 12.9019 1.91573 12.94C1.86402 12.9782 1.79708 12.9892 1.73257 12.969C1.6529 12.9447 1.59725 12.8608 1.59725 12.7649C1.59725 12.6963 1.61195 12.627 1.63986 12.5642L2.07611 11.5827C2.11197 11.5021 2.13018 11.4163 2.13018 11.328C2.13018 11.2143 2.0785 11.1105 1.99715 11.0472C2.0785 10.9838 2.13018 10.8801 2.13018 10.7664C2.13018 10.678 2.11194 10.5923 2.07611 10.5116L1.63986 9.53012C1.61198 9.4674 1.59725 9.39807 1.59725 9.32948C1.59725 9.23358 1.65287 9.14969 1.73257 9.12537C1.79736 9.10536 1.86405 9.11612 1.91573 9.15437C1.96734 9.19252 1.99694 9.25116 1.99694 9.31518C1.99694 9.39533 1.94554 9.42184 1.92343 9.42954C1.88922 9.44163 1.85646 9.43464 1.84595 9.42121C1.83702 9.40989 1.83797 9.37891 1.86989 9.32868C1.88968 9.2977 1.88064 9.25646 1.8496 9.23671C1.81849 9.21719 1.77746 9.2263 1.75763 9.25717C1.67252 9.39055 1.71794 9.47405 1.74143 9.50386C1.78878 9.56356 1.87706 9.58412 1.96221 9.55638C1.93422 9.67503 1.90849 9.78722 2.01649 9.89522C2.0295 9.90823 2.04655 9.91473 2.0636 9.91473C2.08065 9.91473 2.0977 9.90823 2.11071 9.89522C2.13672 9.8692 2.13672 9.82701 2.11071 9.80103C2.05738 9.7477 2.0643 9.70386 2.09243 9.58493C2.10927 9.51363 2.13022 9.42476 2.13022 9.31521C2.13022 9.2423 2.10463 9.17262 2.06149 9.11535H2.06363C2.10044 9.11535 2.13025 9.08557 2.13025 9.04873C2.13025 9.01192 2.10048 8.98211 2.06363 8.98211H2.06149C2.10463 8.92484 2.13022 8.85519 2.13022 8.78224C2.13022 8.6727 2.10927 8.58382 2.09243 8.51252C2.06434 8.39359 2.05734 8.34975 2.11071 8.29642C2.13672 8.2704 2.13672 8.22825 2.11071 8.20223C2.08469 8.17622 2.04254 8.17622 2.01652 8.20223C1.90852 8.31027 1.93429 8.42242 1.96224 8.54107C1.87709 8.51337 1.78878 8.5339 1.74146 8.59359C1.71798 8.62337 1.67256 8.7069 1.75767 8.84028C1.77746 8.87126 1.81838 8.88026 1.84964 8.86075C1.88068 8.84095 1.88972 8.79971 1.86992 8.76878C1.838 8.71854 1.83705 8.68757 1.84598 8.67625C1.85653 8.66285 1.88922 8.65596 1.92347 8.66791C1.94558 8.67558 1.99698 8.70212 1.99698 8.78228C1.99698 8.8463 1.96738 8.90497 1.91577 8.94308C1.86405 8.98133 1.79711 8.99212 1.7326 8.97209C1.65294 8.94776 1.59729 8.86384 1.59729 8.76797C1.59729 8.69938 1.61198 8.63005 1.63989 8.56733L2.07615 7.5858C2.11201 7.50516 2.13022 7.41937 2.13022 7.33106C2.13022 7.2174 2.07854 7.11362 1.99719 7.05027C2.07854 6.98695 2.13022 6.88314 2.13022 6.76948C2.13022 6.68113 2.11197 6.59538 2.07615 6.51473L1.63989 5.53321C1.61202 5.47049 1.59729 5.40116 1.59729 5.33257C1.59729 5.23666 1.6529 5.15278 1.7326 5.12845C1.7974 5.10845 1.86409 5.11921 1.91577 5.15746C1.96738 5.1956 1.99698 5.25424 1.99698 5.31826C1.99698 5.39842 1.94558 5.42493 1.92347 5.43262C1.88926 5.44461 1.85649 5.43758 1.84598 5.42429C1.83705 5.41297 1.838 5.382 1.86992 5.33176C1.88972 5.30079 1.88068 5.25955 1.84964 5.23979C1.81852 5.22028 1.7775 5.22925 1.75767 5.26022C1.67256 5.3936 1.71798 5.4771 1.74146 5.50691C1.78882 5.56661 1.87709 5.58717 1.96224 5.55943C1.93426 5.67809 1.90852 5.79027 2.01652 5.89827C2.02953 5.91128 2.04658 5.91778 2.06363 5.91778C2.08065 5.91778 2.09773 5.91128 2.11074 5.89827C2.13676 5.87225 2.13676 5.8301 2.11074 5.80409C2.05741 5.75075 2.06434 5.70691 2.09246 5.58798C2.1093 5.51668 2.13025 5.42781 2.13025 5.31826C2.13025 5.24535 2.10466 5.17567 2.06152 5.1184H2.06367C2.10048 5.1184 2.13029 5.08862 2.13029 5.05178C2.13029 5.01493 2.10051 4.98516 2.06367 4.98516H2.06152C2.10466 4.92789 2.13025 4.85824 2.13025 4.78529C2.13011 4.67582 2.10916 4.58694 2.09236 4.51564ZM1.4163 4.23172C1.39264 4.16071 1.4009 4.12024 1.41651 4.10604C1.42671 4.09641 1.44218 4.09679 1.45198 4.10122C1.46401 4.10653 1.46401 4.115 1.46401 4.11919C1.46401 4.156 1.49379 4.18581 1.53063 4.18581C1.56744 4.18581 1.59725 4.15603 1.59725 4.11919C1.59725 4.11504 1.59725 4.10657 1.60927 4.10122C1.61891 4.09679 1.63427 4.09641 1.64475 4.10604C1.66039 4.12024 1.66865 4.16071 1.64496 4.23172C1.62773 4.28323 1.5654 4.41731 1.53066 4.49009C1.49663 4.419 1.43363 4.28358 1.4163 4.23172ZM1.53059 6.98045C1.54972 7.00643 1.57134 7.03062 1.59764 7.0503C1.57134 7.07003 1.54972 7.09418 1.53059 7.12016C1.51147 7.09418 1.48985 7.06999 1.46355 7.0503C1.48985 7.03055 1.51147 7.00643 1.53059 6.98045ZM1.53059 10.9774C1.54972 11.0033 1.57134 11.0275 1.59764 11.0472C1.57134 11.0669 1.54972 11.0911 1.53059 11.1171C1.51147 11.0911 1.48985 11.0669 1.46355 11.0472C1.48985 11.0275 1.51147 11.0034 1.53059 10.9774ZM1.64489 13.8659C1.66855 13.9369 1.66029 13.9774 1.64468 13.9916C1.6342 14.001 1.61884 14.0007 1.6092 13.9964C1.59718 13.991 1.59718 13.9826 1.59718 13.9784C1.59718 13.9416 1.5674 13.9118 1.53056 13.9118C1.49372 13.9118 1.46394 13.9416 1.46394 13.9784C1.46394 13.9826 1.46394 13.991 1.45191 13.9964C1.44214 14.0007 1.42667 14.0011 1.41644 13.9916C1.4008 13.9774 1.39257 13.9369 1.41623 13.8659C1.43346 13.8144 1.49579 13.6803 1.53052 13.6075C1.56452 13.6786 1.62752 13.814 1.64489 13.8659ZM1.597 13.0457C1.5718 13.0654 1.54944 13.0888 1.53059 13.1154C1.51179 13.0888 1.48939 13.0654 1.46418 13.0457C1.48939 13.0261 1.51175 13.0026 1.53059 12.9761C1.5494 13.0026 1.57173 13.0261 1.597 13.0457ZM1.95426 11.5286L1.53056 12.4819L1.10686 11.5286C1.07898 11.4659 1.06425 11.3966 1.06425 11.328C1.06425 11.2321 1.11986 11.1482 1.19956 11.1239C1.26429 11.1039 1.33112 11.1146 1.38273 11.1529C1.43434 11.191 1.46394 11.2497 1.46394 11.3137C1.46394 11.3939 1.41254 11.4204 1.39043 11.4281C1.35608 11.4401 1.32342 11.4332 1.31294 11.4198C1.30401 11.4084 1.30496 11.3775 1.33688 11.3272C1.35668 11.2963 1.34764 11.2551 1.3166 11.2353C1.28548 11.2158 1.24446 11.2249 1.22463 11.2557C1.13955 11.3891 1.18494 11.4726 1.20842 11.5024C1.25666 11.5633 1.34739 11.5843 1.43416 11.5539C1.44404 11.5505 1.45406 11.5463 1.46394 11.5412V11.7097C1.46394 11.7096 1.46383 11.7096 1.46383 11.7096C1.46183 11.6745 1.43279 11.6468 1.39735 11.6468C1.36054 11.6468 1.33073 11.6766 1.33073 11.7134C1.33073 11.7569 1.36111 11.8323 1.46397 11.8556V11.9799C1.46397 12.0167 1.49375 12.0465 1.53059 12.0465C1.5674 12.0465 1.59722 12.0167 1.59722 11.9799V11.8556C1.70005 11.8323 1.73046 11.7569 1.73046 11.7134C1.73046 11.6766 1.70075 11.6446 1.66398 11.6446C1.62717 11.6446 1.5975 11.6722 1.5975 11.709C1.59746 11.7091 1.59725 11.7093 1.59722 11.7094V11.5413C1.60709 11.5463 1.61711 11.5505 1.62699 11.554C1.71376 11.5843 1.80446 11.5633 1.85273 11.5025C1.87622 11.4727 1.92164 11.3892 1.83652 11.2558C1.81673 11.2248 1.77563 11.2157 1.74456 11.2353C1.71351 11.2551 1.70448 11.2964 1.72427 11.3273C1.75619 11.3775 1.75714 11.4085 1.74821 11.4198C1.73766 11.4332 1.70504 11.4401 1.67073 11.4282C1.64861 11.4205 1.59722 11.394 1.59722 11.3138C1.59722 11.2498 1.62682 11.1911 1.67843 11.153C1.73014 11.1147 1.79708 11.1038 1.86159 11.124C1.94125 11.1483 1.99691 11.2322 1.99691 11.3281C1.99691 11.3966 1.98221 11.466 1.95426 11.5286ZM1.95426 10.5659C1.98214 10.6286 1.99687 10.6979 1.99687 10.7665C1.99687 10.8624 1.94125 10.9463 1.86156 10.9706C1.7969 10.9908 1.73 10.9799 1.67839 10.9416C1.62678 10.9035 1.59718 10.8448 1.59718 10.7808C1.59718 10.7006 1.64858 10.6741 1.67069 10.6664C1.70497 10.6545 1.73766 10.6613 1.74818 10.6748C1.75711 10.6861 1.75616 10.7171 1.72423 10.7673C1.70444 10.7983 1.71348 10.8395 1.74452 10.8593C1.77581 10.8791 1.81687 10.8699 1.83649 10.8388C1.9216 10.7054 1.87618 10.6219 1.8527 10.5921C1.80443 10.5312 1.71372 10.5105 1.62696 10.5406C1.61708 10.5441 1.60706 10.5483 1.59718 10.5533V10.3848L1.59729 10.385C1.59929 10.42 1.62833 10.4477 1.66377 10.4477C1.70057 10.4477 1.73039 10.418 1.73039 10.3811C1.73039 10.3377 1.70001 10.2623 1.59715 10.2389V10.1147C1.59715 10.0779 1.56737 10.048 1.53052 10.048C1.49372 10.048 1.4639 10.0778 1.4639 10.1147V10.2389C1.36107 10.2623 1.33066 10.3377 1.33066 10.3811C1.33066 10.4179 1.36037 10.4499 1.39714 10.4499C1.43395 10.4499 1.46362 10.4223 1.46362 10.3855C1.46366 10.3854 1.46387 10.3852 1.46387 10.3852L1.4639 10.5533C1.45402 10.5483 1.444 10.544 1.43413 10.5406C1.34736 10.5105 1.25662 10.5312 1.20839 10.5921C1.1849 10.6219 1.13948 10.7054 1.22459 10.8388C1.24439 10.8697 1.28548 10.8787 1.31656 10.8592C1.34761 10.8394 1.35664 10.7982 1.33685 10.7673C1.30493 10.717 1.30398 10.6861 1.31291 10.6747C1.32338 10.6613 1.35604 10.6545 1.39039 10.6664C1.4125 10.6741 1.4639 10.7006 1.4639 10.7808C1.4639 10.8448 1.4343 10.9035 1.38269 10.9416C1.33098 10.9798 1.26418 10.9908 1.19953 10.9706C1.11986 10.9462 1.06421 10.8623 1.06421 10.7665C1.06421 10.6979 1.07891 10.6285 1.10682 10.5658L1.53052 9.61253L1.95426 10.5659ZM1.597 9.0488C1.5718 9.06841 1.54944 9.0919 1.53059 9.11844C1.51179 9.0919 1.48939 9.06845 1.46418 9.0488C1.48939 9.02918 1.51175 9.00569 1.53059 8.97915C1.5494 9.00569 1.57173 9.02914 1.597 9.0488ZM1.95426 7.53173L1.53056 8.48503L1.10686 7.53173C1.07898 7.46902 1.06425 7.39969 1.06425 7.3311C1.06425 7.23519 1.11986 7.15131 1.19956 7.12698C1.26429 7.10694 1.33112 7.11773 1.38273 7.15598C1.43434 7.19413 1.46394 7.25277 1.46394 7.31682C1.46394 7.39698 1.41254 7.42349 1.39043 7.43119C1.35608 7.44328 1.32342 7.43629 1.31294 7.42286C1.30401 7.41154 1.30496 7.38056 1.33688 7.33032C1.35668 7.29935 1.34764 7.25815 1.3166 7.23836C1.28548 7.2187 1.24446 7.22781 1.22463 7.25875C1.13955 7.39213 1.18494 7.47563 1.20842 7.50544C1.25666 7.56633 1.34739 7.58714 1.43416 7.55694C1.44404 7.5535 1.45406 7.54928 1.46394 7.54425V7.71272L1.46383 7.71251C1.46183 7.67753 1.43279 7.64979 1.39735 7.64979C1.36054 7.64979 1.33073 7.67957 1.33073 7.71641C1.33073 7.75986 1.36111 7.83524 1.46397 7.85858V7.98286C1.46397 8.01967 1.49375 8.04948 1.53059 8.04948C1.5674 8.04948 1.59722 8.0197 1.59722 7.98286V7.85858C1.70005 7.83524 1.73046 7.75986 1.73046 7.71641C1.73046 7.6796 1.70075 7.64757 1.66398 7.64757C1.62717 7.64757 1.5975 7.67517 1.5975 7.71198C1.59746 7.71209 1.59725 7.71226 1.59725 7.71226L1.59722 7.54421C1.60709 7.54924 1.61711 7.5535 1.62699 7.55691C1.71376 7.58707 1.80446 7.56629 1.85273 7.5054C1.87622 7.47562 1.92164 7.39209 1.83652 7.25871C1.81673 7.2276 1.77563 7.21853 1.74456 7.23832C1.71351 7.25811 1.70448 7.29935 1.72427 7.33029C1.75619 7.38053 1.75714 7.4115 1.74821 7.42282C1.73766 7.43621 1.70504 7.44328 1.67073 7.43115C1.64861 7.42349 1.59722 7.39694 1.59722 7.31679C1.59722 7.25277 1.62682 7.19409 1.67843 7.15595C1.73014 7.1177 1.79708 7.10691 1.86159 7.12695C1.94125 7.15127 1.99691 7.23519 1.99691 7.33106C1.99691 7.39965 1.98221 7.46898 1.95426 7.53173ZM1.95426 6.56888C1.98214 6.63159 1.99687 6.70092 1.99687 6.76951C1.99687 6.86542 1.94125 6.9493 1.86156 6.97363C1.7969 6.99381 1.73 6.98287 1.67839 6.94462C1.62678 6.90648 1.59718 6.84784 1.59718 6.78378C1.59718 6.70363 1.64858 6.67712 1.67069 6.66942C1.70497 6.65743 1.73766 6.66432 1.74818 6.67775C1.75711 6.68907 1.75616 6.72005 1.72423 6.77028C1.70444 6.80126 1.71348 6.8425 1.74452 6.86225C1.77581 6.88191 1.81687 6.87291 1.83649 6.84183C1.9216 6.70845 1.87618 6.62495 1.8527 6.59514C1.80443 6.53425 1.71372 6.51343 1.62696 6.54363C1.61708 6.54704 1.60706 6.5513 1.59718 6.55632V6.38786C1.59718 6.38789 1.59729 6.38796 1.59729 6.38796C1.59929 6.42305 1.62833 6.45071 1.66377 6.45071C1.70057 6.45071 1.73039 6.42094 1.73039 6.38409C1.73039 6.34064 1.70001 6.26527 1.59715 6.24192V6.11764C1.59715 6.08084 1.56737 6.05102 1.53052 6.05102C1.49372 6.05102 1.4639 6.0808 1.4639 6.11764V6.24192C1.36107 6.26527 1.33066 6.34064 1.33066 6.38409C1.33066 6.4209 1.36037 6.45293 1.39714 6.45293C1.43395 6.45293 1.46362 6.42533 1.46362 6.38852C1.46366 6.38842 1.46387 6.38824 1.4639 6.38814V6.55629C1.45402 6.55126 1.444 6.54701 1.43413 6.5436C1.34736 6.51343 1.25662 6.53421 1.20839 6.5951C1.1849 6.62488 1.13948 6.70841 1.22459 6.84179C1.24439 6.87277 1.28548 6.88177 1.31656 6.86222C1.34761 6.84243 1.35664 6.80119 1.33685 6.77025C1.30493 6.72001 1.30398 6.68904 1.31291 6.67772C1.32338 6.66432 1.35604 6.65743 1.39039 6.66939C1.4125 6.67705 1.4639 6.70359 1.4639 6.78375C1.4639 6.84777 1.4343 6.90645 1.38269 6.94459C1.33098 6.98284 1.26418 6.99377 1.19953 6.97359C1.11986 6.94927 1.06421 6.86535 1.06421 6.76948C1.06421 6.70089 1.07891 6.63156 1.10682 6.56884L1.53052 5.61554L1.95426 6.56888ZM1.46415 5.05185C1.48936 5.03223 1.51172 5.00875 1.53056 4.9822C1.54937 5.00875 1.57173 5.0322 1.59697 5.05185C1.57176 5.07146 1.5494 5.09495 1.53056 5.12149C1.51175 5.09488 1.48943 5.07139 1.46415 5.05185Z" fill="#FFE15A"/>
<path d="M9.51819 9.8661C10.4037 9.8661 11.1215 9.14826 11.1215 8.26276C11.1215 7.37726 10.4037 6.65942 9.51819 6.65942C8.63269 6.65942 7.91486 7.37726 7.91486 8.26276C7.91486 9.14826 8.63269 9.8661 9.51819 9.8661Z" fill="#FFE15A"/>
<path d="M9.63867 6.21844C9.63867 6.28485 9.58481 6.33871 9.5184 6.33871C9.45199 6.33871 9.39813 6.28485 9.39813 6.21844C9.39813 6.15203 9.5184 5.85767 9.5184 5.85767C9.5184 5.85767 9.63867 6.15203 9.63867 6.21844Z" fill="#FFE15A"/>
<path d="M9.39816 10.3073C9.39816 10.2409 9.45202 10.187 9.51843 10.187C9.58484 10.187 9.6387 10.2409 9.6387 10.3073C9.6387 10.3737 9.51843 10.6681 9.51843 10.6681C9.51843 10.6681 9.39816 10.3737 9.39816 10.3073Z" fill="#FFE15A"/>
<path d="M11.5628 8.38312C11.4964 8.38312 11.4425 8.32926 11.4425 8.26285C11.4425 8.19644 11.4964 8.14258 11.5628 8.14258C11.6292 8.14258 11.9236 8.26285 11.9236 8.26285C11.9236 8.26285 11.6292 8.38312 11.5628 8.38312Z" fill="#FFE15A"/>
<path d="M7.47402 8.14258C7.54043 8.14258 7.59429 8.19644 7.59429 8.26285C7.59429 8.32926 7.54043 8.38312 7.47402 8.38312C7.40761 8.38312 7.11325 8.26285 7.11325 8.26285C7.11325 8.26285 7.40761 8.14258 7.47402 8.14258Z" fill="#FFE15A"/>
<path d="M11.0491 6.90218C11.0021 6.94915 10.9259 6.94915 10.879 6.90218C10.832 6.85521 10.832 6.77907 10.879 6.7321C10.9259 6.68516 11.2191 6.56201 11.2191 6.56201C11.2191 6.56201 11.0961 6.85521 11.0491 6.90218Z" fill="#FFE15A"/>
<path d="M7.9878 9.62336C8.03477 9.57639 8.11088 9.57639 8.15789 9.62336C8.20489 9.67033 8.20485 9.74644 8.15789 9.79345C8.11092 9.84045 7.81775 9.9635 7.81775 9.9635C7.81775 9.9635 7.94083 9.67033 7.9878 9.62336Z" fill="#FFE15A"/>
<path d="M10.879 9.79346C10.8321 9.74649 10.8321 9.67038 10.879 9.62337C10.926 9.57637 11.0021 9.57641 11.0491 9.62337C11.0961 9.67034 11.2192 9.96351 11.2192 9.96351C11.2192 9.96351 10.926 9.84043 10.879 9.79346Z" fill="#FFE15A"/>
<path d="M8.15786 6.73206C8.20483 6.77903 8.20483 6.85514 8.15786 6.90215C8.11089 6.94915 8.03478 6.94912 7.98777 6.90215C7.94077 6.85518 7.81769 6.56201 7.81769 6.56201C7.81769 6.56201 8.11089 6.68513 8.15786 6.73206Z" fill="#FFE15A"/>
<path d="M8.84721 6.3281C8.87263 6.38949 8.84348 6.4598 8.7821 6.48522C8.72072 6.51063 8.65041 6.48149 8.62499 6.42011C8.59957 6.35872 8.59802 6.04077 8.59802 6.04077C8.59802 6.04077 8.82179 6.26672 8.84721 6.3281Z" fill="#FFE15A"/>
<path d="M10.1897 10.1975C10.1643 10.1362 10.1935 10.0659 10.2548 10.0404C10.3162 10.015 10.3865 10.0442 10.4119 10.1055C10.4374 10.1669 10.4389 10.4849 10.4389 10.4849C10.4389 10.4849 10.2151 10.259 10.1897 10.1975Z" fill="#FFE15A"/>
<path d="M11.4532 7.59172C11.3918 7.61713 11.3215 7.58799 11.2961 7.52661C11.2707 7.46522 11.2998 7.39491 11.3612 7.36949C11.4226 7.34408 11.7405 7.34253 11.7405 7.34253C11.7405 7.34253 11.5146 7.56626 11.4532 7.59172Z" fill="#FFE15A"/>
<path d="M7.58366 8.93399C7.64504 8.90857 7.71535 8.93772 7.74077 8.9991C7.76619 9.06048 7.73704 9.13079 7.67566 9.15621C7.61428 9.18163 7.29633 9.18318 7.29633 9.18318C7.29633 9.18318 7.52228 8.95944 7.58366 8.93399Z" fill="#FFE15A"/>
<path d="M10.4119 6.42007C10.3865 6.48146 10.3161 6.51056 10.2548 6.48518C10.1934 6.45976 10.1643 6.38942 10.1897 6.32807C10.2151 6.26669 10.4388 6.04077 10.4388 6.04077C10.4388 6.04077 10.4373 6.35872 10.4119 6.42007Z" fill="#FFE15A"/>
<path d="M8.62498 10.1055C8.6504 10.0441 8.72075 10.015 8.7821 10.0404C8.84344 10.0658 8.87259 10.1362 8.84721 10.1975C8.82179 10.2589 8.59805 10.4848 8.59805 10.4848C8.59805 10.4848 8.59956 10.1668 8.62498 10.1055Z" fill="#FFE15A"/>
<path d="M11.3611 9.1562C11.2998 9.13078 11.2707 9.06043 11.296 8.99908C11.3215 8.9377 11.3918 8.90859 11.4531 8.93398C11.5145 8.95939 11.7404 9.18313 11.7404 9.18313C11.7404 9.18313 11.4225 9.18165 11.3611 9.1562Z" fill="#FFE15A"/>
<path d="M7.67566 7.36946C7.73704 7.39488 7.76615 7.46522 7.74077 7.52657C7.71535 7.58796 7.645 7.61706 7.58365 7.59168C7.52227 7.56626 7.29636 7.34253 7.29636 7.34253C7.29636 7.34253 7.61434 7.34401 7.67566 7.36946Z" fill="#FFE15A"/>
<path d="M9.23757 6.23421C9.25054 6.29935 9.20821 6.36267 9.14307 6.37561C9.07792 6.38858 9.01461 6.34625 9.00167 6.28111C8.9887 6.21596 9.04924 5.90381 9.04924 5.90381C9.04924 5.90381 9.2246 6.16906 9.23757 6.23421Z" fill="#FFE15A"/>
<path d="M9.79933 10.2914C9.78636 10.2263 9.82869 10.163 9.89383 10.15C9.95898 10.1371 10.0223 10.1794 10.0352 10.2445C10.0482 10.3097 9.98767 10.6218 9.98767 10.6218C9.98767 10.6218 9.81227 10.3566 9.79933 10.2914Z" fill="#FFE15A"/>
<path d="M11.547 7.98186C11.4819 7.99483 11.4186 7.95254 11.4056 7.88736C11.3927 7.82222 11.4349 7.7589 11.5001 7.74596C11.5653 7.73299 11.8774 7.79353 11.8774 7.79353C11.8774 7.79353 11.6122 7.96889 11.547 7.98186Z" fill="#FFE15A"/>
<path d="M7.48985 8.54384C7.555 8.53087 7.61831 8.57316 7.63125 8.63834C7.64422 8.70349 7.6019 8.7668 7.53675 8.77974C7.47161 8.79271 7.15945 8.73217 7.15945 8.73217C7.15945 8.73217 7.42471 8.55682 7.48985 8.54384Z" fill="#FFE15A"/>
<path d="M10.7542 6.62976C10.7174 6.68499 10.6426 6.69983 10.5874 6.66291C10.5322 6.62603 10.5173 6.55133 10.5543 6.4961C10.5911 6.4409 10.8547 6.26294 10.8547 6.26294C10.8547 6.26294 10.7911 6.57449 10.7542 6.62976Z" fill="#FFE15A"/>
<path d="M8.28263 9.89597C8.31951 9.84077 8.39422 9.8259 8.44945 9.86282C8.50468 9.8997 8.51951 9.9744 8.4826 10.0296C8.44572 10.0848 8.18219 10.2628 8.18219 10.2628C8.18219 10.2628 8.24575 9.95127 8.28263 9.89597Z" fill="#FFE15A"/>
<path d="M11.1515 9.49858C11.0963 9.4617 11.0814 9.38699 11.1183 9.33176C11.1552 9.27656 11.2299 9.26169 11.2852 9.29861C11.3404 9.33549 11.5183 9.59902 11.5183 9.59902C11.5183 9.59902 11.2067 9.53546 11.1515 9.49858Z" fill="#FFE15A"/>
<path d="M7.88541 7.02696C7.94064 7.06383 7.95551 7.13854 7.91856 7.19377C7.88168 7.249 7.80697 7.26384 7.75174 7.22692C7.69651 7.19001 7.51859 6.92651 7.51859 6.92651C7.51859 6.92651 7.83021 6.99008 7.88541 7.02696Z" fill="#FFE15A"/>
<path d="M8.4826 6.49606C8.51948 6.55129 8.50464 6.62596 8.44945 6.66288C8.39422 6.69976 8.31955 6.68492 8.28263 6.62972C8.24575 6.57449 8.18219 6.26294 8.18219 6.26294C8.18219 6.26294 8.44572 6.4409 8.4826 6.49606Z" fill="#FFE15A"/>
<path d="M10.5543 10.0296C10.5174 9.97439 10.5322 9.89972 10.5874 9.8628C10.6427 9.82592 10.7173 9.84076 10.7542 9.89595C10.7911 9.95118 10.8547 10.2627 10.8547 10.2627C10.8547 10.2627 10.5912 10.0848 10.5543 10.0296Z" fill="#FFE15A"/>
<path d="M11.2851 7.22692C11.2299 7.2638 11.1552 7.24897 11.1183 7.19377C11.0814 7.13854 11.0963 7.06387 11.1514 7.02696C11.2066 6.99008 11.5182 6.92651 11.5182 6.92651C11.5182 6.92651 11.3403 7.19005 11.2851 7.22692Z" fill="#FFE15A"/>
<path d="M7.75177 9.29859C7.80696 9.26171 7.88167 9.27655 7.91858 9.33174C7.95546 9.38697 7.94063 9.46165 7.88543 9.49856C7.8302 9.53544 7.51865 9.599 7.51865 9.599C7.51865 9.599 7.69654 9.33551 7.75177 9.29859Z" fill="#FFE15A"/>
<path d="M10.0352 6.28107C10.0223 6.34621 9.95898 6.38854 9.89383 6.37557C9.82869 6.3626 9.78636 6.29932 9.79933 6.23417C9.81231 6.16903 9.98767 5.90381 9.98767 5.90381C9.98767 5.90381 10.0482 6.21589 10.0352 6.28107Z" fill="#FFE15A"/>
<path d="M9.00166 10.2445C9.01463 10.1794 9.07792 10.1371 9.14306 10.15C9.2082 10.163 9.25053 10.2263 9.23756 10.2914C9.22459 10.3566 9.04923 10.6218 9.04923 10.6218C9.04923 10.6218 8.98872 10.3097 9.00166 10.2445Z" fill="#FFE15A"/>
<path d="M11.5001 8.77974C11.435 8.76677 11.3926 8.70349 11.4056 8.63834C11.4186 8.5732 11.4819 8.53087 11.547 8.54384C11.6121 8.55681 11.8774 8.73217 11.8774 8.73217C11.8774 8.73217 11.5652 8.79268 11.5001 8.77974Z" fill="#FFE15A"/>
<path d="M7.53678 7.74595C7.60193 7.75893 7.64425 7.82221 7.63128 7.88735C7.61831 7.9525 7.55503 7.99483 7.48988 7.98185C7.42474 7.96888 7.15948 7.79352 7.15948 7.79352C7.15948 7.79352 7.47164 7.73302 7.53678 7.74595Z" fill="#FFE15A"/>
<path d="M13.29 8.68461C13.243 8.66485 13.1894 8.68749 13.1698 8.73418C13.1698 8.73439 13.1698 8.73439 13.1698 8.73439C13.1694 8.73527 13.1676 8.73959 13.1645 8.74698C13.095 8.90933 12.9512 9.1466 12.806 9.36981C12.9412 8.93447 13.0648 8.46949 13.0735 8.43679C13.0864 8.38796 13.0575 8.33783 13.0087 8.32458C12.9599 8.31146 12.9097 8.33987 12.896 8.38849C12.8329 8.61461 12.7039 8.91221 12.5848 9.16414C12.6066 8.88324 12.6107 8.62302 12.611 8.60417C12.6117 8.55443 12.5728 8.51329 12.523 8.51094C12.4762 8.51238 12.431 8.54652 12.4274 8.59623C12.3096 10.2158 10.7512 10.9403 10.5994 11.007C10.52 11.0149 10.1502 11.0565 9.81458 11.1731C9.77647 11.1863 9.74412 11.1995 9.71185 11.2127C9.69986 11.2082 9.68699 11.2057 9.67346 11.2065C8.64331 11.281 7.82192 10.8584 7.23158 9.95308C6.78555 9.26901 6.64566 8.55098 6.64429 8.54381C6.63487 8.49389 6.58706 8.46172 6.53692 8.47054C6.487 8.48004 6.4542 8.52799 6.46366 8.57791C6.46738 8.59774 6.52877 8.91116 6.6978 9.32364C6.47164 8.96663 6.31403 8.53414 6.25856 8.30889C6.25743 8.30439 6.25455 8.30099 6.25286 8.29684C6.25029 8.29047 6.24808 8.28407 6.24425 8.27856C6.24154 8.27465 6.23799 8.27181 6.23479 8.2684C6.22976 8.26309 6.22495 8.25788 6.21879 8.25391C6.21528 8.25163 6.21134 8.2505 6.20751 8.24871C6.20072 8.24554 6.19408 8.24241 6.18652 8.24104C6.18128 8.24002 6.17594 8.24069 6.17049 8.24059C6.16497 8.24052 6.15977 8.23911 6.15414 8.24009C6.15291 8.24031 6.15196 8.24115 6.15073 8.24143C6.14954 8.24168 6.14841 8.24129 6.14722 8.24154C6.14229 8.24273 6.13853 8.24582 6.13403 8.24776C6.1283 8.25025 6.12243 8.25212 6.1174 8.2556C6.11245 8.25901 6.10876 8.26344 6.10464 8.26769C6.10053 8.27191 6.09624 8.27564 6.09301 8.28052C6.08974 8.28548 6.08798 8.29107 6.08566 8.29659C6.08344 8.30197 6.08088 8.30703 6.07972 8.31283C6.07852 8.31877 6.07905 8.32489 6.07908 8.33111C6.07908 8.33607 6.07771 8.34082 6.07859 8.34588C6.07894 8.34802 6.07965 8.35024 6.08003 8.35235V8.3527C6.08014 8.35309 6.08028 8.35361 6.08038 8.35404C6.13727 8.68918 6.27283 9.03659 6.39542 9.30153C6.20076 9.08064 6.03809 8.82611 5.98044 8.67543C5.97878 8.67104 5.97544 8.66798 5.97319 8.66404C5.96978 8.65796 5.96679 8.65174 5.96219 8.64671C5.95892 8.64313 5.95495 8.64081 5.95122 8.63782C5.94563 8.63332 5.94032 8.62878 5.93385 8.62569C5.9297 8.62372 5.9252 8.62309 5.92081 8.62172C5.91403 8.61968 5.90745 8.61743 5.90024 8.61697C5.89458 8.61658 5.88896 8.61802 5.88323 8.61876C5.87792 8.61943 5.87268 8.61876 5.86741 8.62041C5.86639 8.62073 5.86569 8.62154 5.86474 8.62189C5.86375 8.62221 5.86277 8.622 5.86178 8.62238C5.85679 8.62428 5.85324 8.62797 5.84878 8.63061C5.84354 8.6337 5.83795 8.63627 5.83348 8.64028C5.82891 8.64439 5.82575 8.64949 5.82216 8.65438C5.81875 8.65898 5.81495 8.66309 5.81242 8.66823C5.80979 8.67361 5.8088 8.67944 5.80729 8.68524C5.80578 8.6909 5.80378 8.69618 5.80339 8.70212C5.80297 8.70806 5.80444 8.714 5.80522 8.72001C5.80588 8.72522 5.80518 8.73038 5.8068 8.73552C5.90685 9.05825 6.14746 9.44223 6.33597 9.71272C6.17889 9.59168 6.06344 9.46075 6.02994 9.42124C6.02631 9.41695 6.02276 9.41263 6.01914 9.40834C5.98673 9.36935 5.92942 9.36379 5.89019 9.39558C5.85106 9.42753 5.84491 9.48505 5.87655 9.52432C5.87827 9.5265 5.88516 9.53511 5.89666 9.54857C6.03461 9.71275 6.1849 9.86593 6.32106 9.99523L6.13481 9.91585C6.09234 9.89754 6.04242 9.91406 6.01914 9.95445C5.9959 9.99488 6.00638 10.046 6.04365 10.0741C6.06175 10.0875 6.39162 10.3339 6.67716 10.4795C6.65023 10.4812 6.61863 10.4792 6.58326 10.4765C6.54009 10.4723 6.49762 10.5032 6.48711 10.547C6.47677 10.591 6.49976 10.636 6.54153 10.6532C6.54856 10.6561 6.63557 10.692 6.74301 10.7302C6.71794 10.7404 6.69801 10.7615 6.68975 10.7887C6.67737 10.8295 6.69478 10.8737 6.73176 10.8949C6.74139 10.9005 6.8714 10.975 7.0322 11.0411C7.02792 11.0477 7.0244 11.0549 7.0218 11.0628C7.00921 11.1014 7.02359 11.1438 7.0571 11.167C7.08501 11.1862 7.70956 11.61 8.43898 11.61C8.48687 11.61 8.53524 11.6082 8.5839 11.6043C8.63445 11.6003 8.67228 11.556 8.66824 11.5053C8.66419 11.4546 8.62028 11.4164 8.5692 11.4211C8.11097 11.4584 7.66952 11.2864 7.40697 11.1549C7.44163 11.1464 7.46157 11.1387 7.46652 11.1368C7.50702 11.1202 7.53037 11.0777 7.52246 11.0347C7.51455 10.9918 7.47756 10.9604 7.43383 10.9595C7.32724 10.9573 7.17961 10.9054 7.05245 10.8497C7.10048 10.8257 7.12853 10.8026 7.13099 10.8007C7.15866 10.7775 7.17033 10.7405 7.16091 10.7057C7.15142 10.671 7.12245 10.645 7.08694 10.6392C7.04788 10.6328 6.99923 10.6202 6.94822 10.6047C6.99779 10.5762 7.01888 10.5448 7.02697 10.5288C7.03973 10.5033 7.04001 10.4734 7.02778 10.4478C7.01547 10.4221 6.99206 10.4036 6.96418 10.3976C6.94013 10.3924 6.91288 10.3836 6.88346 10.3721C6.88884 10.3668 6.89379 10.3606 6.8978 10.3537C6.92122 10.314 6.91155 10.2629 6.8752 10.2344C6.8733 10.233 6.80193 10.1769 6.69386 10.0837C6.71102 10.0774 6.72617 10.0658 6.73714 10.05C6.76031 10.0166 6.75865 9.97186 6.73327 9.94021C6.73123 9.93768 6.65976 9.84783 6.56125 9.71135C6.59377 9.73659 6.62626 9.7624 6.65874 9.78328C6.67403 9.79298 6.69133 9.79783 6.70849 9.79783C6.73176 9.79783 6.75472 9.78904 6.7724 9.77196C6.77968 9.76493 6.78537 9.75684 6.78987 9.74823C6.84567 9.80782 6.90427 9.86192 6.96583 9.90808C6.97385 9.91409 6.98358 9.91399 6.99258 9.91701C7.01867 9.96075 7.04581 10.0046 7.07429 10.0484C7.63267 10.9075 8.42 11.3677 9.36429 11.3953C9.27735 11.4481 9.18296 11.5027 9.03351 11.5609C9.00088 11.5736 8.97206 11.5864 8.94309 11.5991C8.9291 11.6019 8.91598 11.6069 8.90498 11.6156C8.64412 11.7364 8.53612 11.8557 8.49231 11.9392C8.44858 12.0221 8.4863 12.1072 8.5397 12.1514C8.5563 12.1651 8.57743 12.1721 8.59863 12.1721C8.61318 12.1721 8.62774 12.1688 8.64092 12.1622C8.67344 12.146 8.69517 12.1117 8.69372 12.0756C8.69749 12.0715 8.71348 12.0582 8.76358 12.0566C8.80011 12.0535 8.87699 12.0618 8.96671 12.069C9.05207 12.076 9.15445 12.084 9.26329 12.0896C9.19519 12.169 9.11606 12.261 9.11606 12.261C9.09229 12.2887 9.08705 12.3278 9.10287 12.3607C9.11876 12.3937 9.15301 12.4142 9.1889 12.4129C9.26157 12.4104 9.31093 12.4089 9.34334 12.4083C9.37161 12.4453 9.40631 12.46 9.42863 12.4657C9.49188 12.4819 9.55488 12.4566 9.60237 12.4266C9.6383 12.4524 9.67423 12.4634 9.70271 12.4675C9.7669 12.4763 9.82639 12.4576 9.86935 12.4364C9.91389 12.4652 9.95752 12.4725 9.99078 12.4725C9.99124 12.4725 9.9918 12.4725 9.99229 12.4725C10.064 12.4722 10.1268 12.4375 10.1712 12.4035C10.2105 12.4269 10.248 12.4344 10.277 12.4357C10.3429 12.438 10.3974 12.4127 10.4337 12.389C10.5633 12.415 10.675 12.354 10.7488 12.2866C10.7825 12.3062 10.8145 12.311 10.84 12.3098C10.9057 12.3075 10.9557 12.2676 10.9878 12.2318C11.1347 12.2496 11.2401 12.2225 11.3011 12.1501C11.3343 12.1108 11.3478 12.0665 11.3514 12.026C11.759 12.0237 11.7959 11.8012 11.7989 11.7737C11.8016 11.7487 11.794 11.7238 11.7777 11.7046C11.7616 11.6854 11.7381 11.6735 11.7131 11.672L10.6445 11.6078C10.5998 11.6045 10.5599 11.6345 10.5495 11.6782C10.5493 11.6789 10.5311 11.7468 10.4741 11.8011C10.3974 11.8743 10.2739 11.913 10.1395 11.9335C10.14 11.9212 10.1383 11.9086 10.1336 11.8964C10.1153 11.849 10.0619 11.826 10.0147 11.8438C9.79408 11.9294 9.43689 11.9186 9.15747 11.8992C9.20033 11.8642 9.25193 11.8295 9.29317 11.8068C9.32801 11.7876 9.34672 11.7483 9.33933 11.7091C9.33399 11.6807 9.31342 11.6609 9.28864 11.6482C9.36633 11.6089 9.43004 11.571 9.49047 11.5342C9.59538 11.4699 9.69448 11.4094 9.87497 11.3467C10.2234 11.2257 10.6266 11.1889 10.6306 11.1885C10.6398 11.1878 10.6488 11.1854 10.6573 11.182C10.6716 11.1761 11.809 10.6996 12.3448 9.60029C12.3377 9.63351 12.3302 9.66389 12.322 9.69043C12.308 9.73571 12.3306 9.78402 12.3743 9.8023C12.408 9.8165 12.4464 9.80912 12.4724 9.78507C12.4385 9.87433 12.4079 9.94454 12.3829 9.98602C12.3574 10.0282 12.3697 10.083 12.4107 10.1103C12.4204 10.1166 12.4307 10.1209 12.4412 10.1234C12.3998 10.1841 12.3577 10.2416 12.3158 10.2942C12.2879 10.3293 12.2895 10.3792 12.3187 10.4123C12.2466 10.4877 12.1828 10.5498 12.1343 10.5893C12.1026 10.615 12.0923 10.658 12.1068 10.6946C12.06 10.7214 12.0216 10.7402 11.995 10.7483C11.9502 10.7617 11.9228 10.8068 11.9312 10.8528C11.9356 10.8771 11.9493 10.8975 11.9681 10.911C11.9119 10.9261 11.8504 10.9406 11.7836 10.9539C11.746 10.9614 11.717 10.9914 11.7108 11.0293C11.7046 11.0672 11.7226 11.1049 11.7559 11.1239C11.7588 11.1255 11.7902 11.1433 11.8383 11.1638C11.6604 11.2354 11.3428 11.329 10.8216 11.3804C10.7711 11.3854 10.7341 11.4305 10.7392 11.481C10.7441 11.5315 10.7877 11.5665 10.8397 11.5636C11.8291 11.4657 12.1346 11.2181 12.1471 11.2074C12.1756 11.1835 12.1869 11.1446 12.1756 11.109C12.1681 11.0855 12.1516 11.0665 12.1303 11.0555C12.4464 10.956 12.5821 10.8459 12.5892 10.84C12.6238 10.8112 12.6326 10.7615 12.6097 10.7225C12.5868 10.6835 12.5389 10.6666 12.4971 10.6835C12.4854 10.688 12.4666 10.6927 12.4429 10.6973C12.655 10.5521 12.8802 10.3791 12.9792 10.3019C12.9966 10.289 13.0125 10.2765 13.0264 10.2648C13.0648 10.2325 13.0702 10.1754 13.0385 10.1365C13.007 10.0977 12.9496 10.0912 12.9103 10.1223C12.896 10.1336 12.881 10.1452 12.8656 10.1573C12.8199 10.1912 12.7614 10.2297 12.6976 10.2691C12.9384 9.9958 13.1807 9.69947 13.25 9.61435C13.2563 9.60662 13.2625 9.59892 13.2687 9.59118C13.3005 9.55167 13.2943 9.49384 13.2548 9.46206C13.2152 9.42975 13.1573 9.43639 13.1256 9.4757L13.1254 9.47587L13.1253 9.47608C13.1236 9.47805 13.1158 9.48775 13.1027 9.50393C13.0302 9.59245 12.9538 9.67816 12.8785 9.75821C13.1237 9.31373 13.3094 8.87621 13.3366 8.81138C13.3376 8.80906 13.3385 8.80674 13.3395 8.80435C13.3591 8.75791 13.3369 8.70402 13.29 8.68461ZM8.98021 11.7843L9.00531 11.7875C8.97452 11.8163 8.94949 11.8486 8.92955 11.8819C8.88589 11.8784 8.84627 11.8754 8.81522 11.874C8.85801 11.846 8.91306 11.8157 8.98021 11.7843Z" fill="#FFE15A"/>
</svg>
