<svg width="18" height="18" viewBox="0 0 18 18" fill="none" xmlns="http://www.w3.org/2000/svg">
<path d="M16.6519 14.8966H1.34807C0.603527 14.8966 0 14.2931 0 13.5485V4.45158C0 3.70708 0.603527 3.10352 1.34807 3.10352H16.6519C17.3964 3.10352 18 3.70704 18 4.45158V13.5486C18 14.2931 17.3965 14.8966 16.6519 14.8966Z" fill="#FF4B55"/>
<path d="M1.34807 3.10352C0.603527 3.10352 0 3.70704 0 4.45158V13.5486C0 14.2931 0.603527 14.8967 1.34807 14.8967H6.51723V3.10352H1.34807Z" fill="#73AF00"/>
<path d="M6.51971 11.7906C8.06097 11.7906 9.31041 10.5412 9.31041 8.99993C9.31041 7.45867 8.06097 6.20923 6.51971 6.20923C4.97844 6.20923 3.729 7.45867 3.729 8.99993C3.729 10.5412 4.97844 11.7906 6.51971 11.7906Z" fill="#FFE15A"/>
<path d="M7.45073 8.06893V9.31029C7.45073 9.82368 7.03307 10.2413 6.51969 10.2413C6.0063 10.2413 5.58864 9.82368 5.58864 9.31029V8.06893H7.45073ZM7.76105 7.44824H5.27829C5.1069 7.44824 4.96793 7.58721 4.96793 7.7586V9.31033C4.96793 10.1673 5.66268 10.8621 6.51965 10.8621C7.37662 10.8621 8.07138 10.1673 8.07138 9.31033V7.7586C8.07141 7.58721 7.93244 7.44824 7.76105 7.44824Z" fill="#FF4B55"/>
<path d="M7.45074 8.06885V9.31021C7.45074 9.8236 7.03308 10.2413 6.5197 10.2413C6.00631 10.2413 5.58865 9.8236 5.58865 9.31021V8.06885H7.45074Z" fill="#F5F5F5"/>
<path d="M5.27591 7.91388C5.36161 7.91388 5.43109 7.8444 5.43109 7.7587C5.43109 7.67299 5.36161 7.60352 5.27591 7.60352C5.1902 7.60352 5.12073 7.67299 5.12073 7.7587C5.12073 7.8444 5.1902 7.91388 5.27591 7.91388Z" fill="#FFE15A"/>
<path d="M7.75863 7.91388C7.84434 7.91388 7.91381 7.8444 7.91381 7.7587C7.91381 7.67299 7.84434 7.60352 7.75863 7.60352C7.67293 7.60352 7.60345 7.67299 7.60345 7.7587C7.60345 7.8444 7.67293 7.91388 7.75863 7.91388Z" fill="#FFE15A"/>
<path d="M5.27591 9.15533C5.36161 9.15533 5.43109 9.08585 5.43109 9.00015C5.43109 8.91445 5.36161 8.84497 5.27591 8.84497C5.1902 8.84497 5.12073 8.91445 5.12073 9.00015C5.12073 9.08585 5.1902 9.15533 5.27591 9.15533Z" fill="#FFE15A"/>
<path d="M7.75863 9.15533C7.84434 9.15533 7.91381 9.08585 7.91381 9.00015C7.91381 8.91445 7.84434 8.84497 7.75863 8.84497C7.67293 8.84497 7.60345 8.91445 7.60345 9.00015C7.60345 9.08585 7.67293 9.15533 7.75863 9.15533Z" fill="#FFE15A"/>
<path d="M6.51727 7.91388C6.60297 7.91388 6.67245 7.8444 6.67245 7.7587C6.67245 7.67299 6.60297 7.60352 6.51727 7.60352C6.43157 7.60352 6.36209 7.67299 6.36209 7.7587C6.36209 7.8444 6.43157 7.91388 6.51727 7.91388Z" fill="#FFE15A"/>
<path d="M7.44891 10.2996C7.53461 10.2996 7.60409 10.2301 7.60409 10.1444C7.60409 10.0587 7.53461 9.98926 7.44891 9.98926C7.36321 9.98926 7.29373 10.0587 7.29373 10.1444C7.29373 10.2301 7.36321 10.2996 7.44891 10.2996Z" fill="#FFE15A"/>
<path d="M5.60391 10.2996C5.68961 10.2996 5.75909 10.2301 5.75909 10.1444C5.75909 10.0587 5.68961 9.98926 5.60391 9.98926C5.51821 9.98926 5.44873 10.0587 5.44873 10.1444C5.44873 10.2301 5.51821 10.2996 5.60391 10.2996Z" fill="#FFE15A"/>
<path d="M6.72007 8.92139V9.18864C6.72007 9.29918 6.63015 9.38911 6.51961 9.38911C6.40908 9.38911 6.31915 9.29918 6.31915 9.18864V8.92139H6.72007Z" fill="#41479B"/>
<path d="M6.72007 8.28784V8.5551C6.72007 8.66563 6.63015 8.75556 6.51961 8.75556C6.40908 8.75556 6.31915 8.66563 6.31915 8.5551V8.28784H6.72007Z" fill="#41479B"/>
<path d="M6.72007 9.56152V9.82878C6.72007 9.93931 6.63015 10.0292 6.51961 10.0292C6.40908 10.0292 6.31915 9.93931 6.31915 9.82878V9.56152H6.72007Z" fill="#41479B"/>
<path d="M7.25996 8.92139V9.18864C7.25996 9.29918 7.17003 9.38911 7.0595 9.38911C6.94897 9.38911 6.85904 9.29918 6.85904 9.18864V8.92139H7.25996Z" fill="#41479B"/>
<path d="M6.18025 8.92139V9.18864C6.18025 9.29918 6.09032 9.38911 5.97979 9.38911C5.86926 9.38911 5.77933 9.29918 5.77933 9.18864V8.92139H6.18025Z" fill="#41479B"/>
</svg>
