<svg width="24" height="24" viewBox="0 0 24 24" fill="none" xmlns="http://www.w3.org/2000/svg">
<g clip-path="url(#clip0_203_259)">
<circle cx="12" cy="12" r="12" fill="url(#paint0_linear_203_259)"/>
<path fill-rule="evenodd" clip-rule="evenodd" d="M8.11564 12.9841L4.82372 11.7423C4.4893 11.6157 4.48668 11.1386 4.8198 11.0087L18.3293 5.74129C18.6158 5.62946 18.9114 5.88292 18.8486 6.1869L16.4244 17.9734C16.3673 18.2519 16.0446 18.378 15.8166 18.2104L12.5072 15.7821C12.3062 15.6348 12.0324 15.6426 11.8401 15.801L10.0049 17.3127C9.79212 17.4889 9.47122 17.3909 9.38969 17.1253L8.11564 12.9841ZM15.6176 8.31858L9.18417 12.323C8.93739 12.4771 8.82141 12.7781 8.9012 13.0596L9.59665 15.5299C9.64592 15.7048 9.8975 15.6871 9.92148 15.5061L10.1024 14.1516C10.1364 13.8964 10.2568 13.6615 10.4434 13.4858L15.7528 8.49777C15.8522 8.40451 15.7332 8.24647 15.6176 8.31858Z" fill="white"/>
</g>
<defs>
<linearGradient id="paint0_linear_203_259" x1="0" y1="0" x2="24.4522" y2="0.992405" gradientUnits="userSpaceOnUse">
<stop stop-color="#2E22AC"/>
<stop offset="1" stop-color="#DB499E"/>
</linearGradient>
<clipPath id="clip0_203_259">
<rect width="24" height="24" fill="white"/>
</clipPath>
</defs>
</svg>
