<svg width="35" height="30" viewBox="0 0 35 30" fill="none" xmlns="http://www.w3.org/2000/svg">
<path d="M1 3.8V26.2C1 26.9426 1.295 27.6548 1.8201 28.1799C2.3452 28.705 3.05739 29 3.8 29H31.8C32.1713 29 32.5274 28.8525 32.7899 28.59C33.0525 28.3274 33.2 27.9713 33.2 27.6V8C33.2 7.6287 33.0525 7.2726 32.7899 7.01005C32.5274 6.7475 32.1713 6.6 31.8 6.6H3.8C3.05739 6.6 2.3452 6.305 1.8201 5.7799C1.295 5.2548 1 4.54261 1 3.8ZM1 3.8C1 3.05739 1.295 2.3452 1.8201 1.8201C2.3452 1.295 3.05739 1 3.8 1H27.6" stroke="url(#paint0_linear_2_60)" stroke-width="2" stroke-linecap="round" stroke-linejoin="round"/>
<path d="M25.5 19.9C26.6598 19.9 27.6 18.9598 27.6 17.8C27.6 16.6402 26.6598 15.7 25.5 15.7C24.3402 15.7 23.4 16.6402 23.4 17.8C23.4 18.9598 24.3402 19.9 25.5 19.9Z" fill="url(#paint1_linear_2_60)"/>
<defs>
<linearGradient id="paint0_linear_2_60" x1="1" y1="1" x2="34.5" y2="29" gradientUnits="userSpaceOnUse">
<stop stop-color="#2985B0"/>
<stop offset="0.515625" stop-color="#94389A"/>
<stop offset="1" stop-color="#F07538"/>
</linearGradient>
<linearGradient id="paint1_linear_2_60" x1="23" y1="16" x2="28" y2="20" gradientUnits="userSpaceOnUse">
<stop stop-color="#2985B0"/>
<stop offset="0.515625" stop-color="#94389A"/>
<stop offset="1" stop-color="#F07538"/>
</linearGradient>
</defs>
</svg>
