<svg width="25" height="24" viewBox="0 0 25 24" fill="none" xmlns="http://www.w3.org/2000/svg">
<g clip-path="url(#clip0_203_263)">
<circle cx="12.0345" cy="12" r="12" fill="url(#paint0_linear_203_263)"/>
<path fill-rule="evenodd" clip-rule="evenodd" d="M18.4894 7.76211C18.7066 7.98374 18.8626 8.25933 18.9417 8.56129C19.2344 9.67581 19.2344 12 19.2344 12C19.2344 12 19.2344 14.3242 18.9417 15.4387C18.8626 15.7407 18.7066 16.0163 18.4894 16.2379C18.2721 16.4595 18.0013 16.6194 17.704 16.7016C16.6094 17 12.2344 17 12.2344 17C12.2344 17 7.85944 17 6.76489 16.7016C6.46756 16.6194 6.19674 16.4595 5.97952 16.2379C5.7623 16.0163 5.60631 15.7407 5.52716 15.4387C5.23444 14.3242 5.23444 12 5.23444 12C5.23444 12 5.23444 9.67581 5.52716 8.56129C5.60631 8.25933 5.7623 7.98374 5.97952 7.76211C6.19674 7.54047 6.46756 7.38057 6.76489 7.29839C7.85944 7 12.2344 7 12.2344 7C12.2344 7 16.6094 7 17.704 7.29839C18.0013 7.38057 18.2721 7.54047 18.4894 7.76211ZM14.4617 12L10.8026 9.88956V14.1105L14.4617 12Z" fill="white"/>
</g>
<defs>
<linearGradient id="paint0_linear_203_263" x1="0.0344849" y1="0" x2="24.4867" y2="0.992405" gradientUnits="userSpaceOnUse">
<stop stop-color="#2E22AC"/>
<stop offset="1" stop-color="#DB499E"/>
</linearGradient>
<clipPath id="clip0_203_263">
<rect width="24" height="24" fill="white" transform="translate(0.0344849)"/>
</clipPath>
</defs>
</svg>
