<svg width="32" height="16" viewBox="0 0 32 16" fill="none" xmlns="http://www.w3.org/2000/svg">
<rect width="32" height="16" rx="8" fill="url(#paint0_linear_875_275)" fill-opacity="0.2"/>
<path d="M7.21 12.09C6.64333 12.09 6.13 12.02 5.67 11.88C5.21 11.7333 4.81 11.5267 4.47 11.26L4.82 10.44C5.04667 10.6133 5.28 10.7567 5.52 10.87C5.76667 10.9833 6.02667 11.07 6.3 11.13C6.58 11.1833 6.88333 11.21 7.21 11.21C7.77 11.21 8.18 11.11 8.44 10.91C8.70667 10.71 8.84 10.4467 8.84 10.12C8.84 9.84 8.74667 9.62333 8.56 9.47C8.38 9.31667 8.06 9.19333 7.6 9.1L6.51 8.88C5.86333 8.74667 5.38 8.53 5.06 8.23C4.74667 7.92333 4.59 7.50667 4.59 6.98C4.59 6.55333 4.70333 6.18 4.93 5.86C5.15667 5.54 5.47 5.29333 5.87 5.12C6.27667 4.94667 6.75 4.86 7.29 4.86C7.79 4.86 8.25 4.93333 8.67 5.08C9.09 5.22 9.44333 5.43 9.73 5.71L9.39 6.5C9.09 6.24 8.77 6.05 8.43 5.93C8.09 5.80333 7.70333 5.74 7.27 5.74C6.75667 5.74 6.35333 5.84667 6.06 6.06C5.77333 6.27333 5.63 6.56333 5.63 6.93C5.63 7.22333 5.72 7.45333 5.9 7.62C6.08667 7.78667 6.39333 7.91333 6.82 8L7.91 8.21C8.58333 8.35 9.08 8.56667 9.4 8.86C9.72 9.14667 9.88 9.54333 9.88 10.05C9.88 10.4567 9.77 10.8133 9.55 11.12C9.33667 11.4267 9.03 11.6667 8.63 11.84C8.23 12.0067 7.75667 12.09 7.21 12.09ZM13.2281 12.09C12.7281 12.09 12.2948 11.9867 11.9281 11.78C11.5615 11.5667 11.2781 11.2667 11.0781 10.88C10.8781 10.4867 10.7781 10.02 10.7781 9.48C10.7781 8.94 10.8781 8.47667 11.0781 8.09C11.2781 7.69667 11.5615 7.39667 11.9281 7.19C12.2948 6.97667 12.7281 6.87 13.2281 6.87C13.7281 6.87 14.1615 6.97667 14.5281 7.19C14.9015 7.39667 15.1881 7.69667 15.3881 8.09C15.5948 8.47667 15.6981 8.94 15.6981 9.48C15.6981 10.02 15.5948 10.4867 15.3881 10.88C15.1881 11.2667 14.9015 11.5667 14.5281 11.78C14.1615 11.9867 13.7281 12.09 13.2281 12.09ZM13.2281 11.3C13.6681 11.3 14.0181 11.1467 14.2781 10.84C14.5381 10.5333 14.6681 10.08 14.6681 9.48C14.6681 8.88 14.5381 8.43 14.2781 8.13C14.0181 7.82333 13.6681 7.67 13.2281 7.67C12.7948 7.67 12.4481 7.82333 12.1881 8.13C11.9281 8.43 11.7981 8.88 11.7981 9.48C11.7981 10.08 11.9248 10.5333 12.1781 10.84C12.4381 11.1467 12.7881 11.3 13.2281 11.3ZM19.0387 12.09C18.5387 12.09 18.1053 11.9867 17.7387 11.78C17.372 11.5667 17.0887 11.2667 16.8887 10.88C16.6887 10.4867 16.5887 10.02 16.5887 9.48C16.5887 8.94 16.6887 8.47667 16.8887 8.09C17.0887 7.69667 17.372 7.39667 17.7387 7.19C18.1053 6.97667 18.5387 6.87 19.0387 6.87C19.5387 6.87 19.972 6.97667 20.3387 7.19C20.712 7.39667 20.9987 7.69667 21.1987 8.09C21.4053 8.47667 21.5087 8.94 21.5087 9.48C21.5087 10.02 21.4053 10.4867 21.1987 10.88C20.9987 11.2667 20.712 11.5667 20.3387 11.78C19.972 11.9867 19.5387 12.09 19.0387 12.09ZM19.0387 11.3C19.4787 11.3 19.8287 11.1467 20.0887 10.84C20.3487 10.5333 20.4787 10.08 20.4787 9.48C20.4787 8.88 20.3487 8.43 20.0887 8.13C19.8287 7.82333 19.4787 7.67 19.0387 7.67C18.6053 7.67 18.2587 7.82333 17.9987 8.13C17.7387 8.43 17.6087 8.88 17.6087 9.48C17.6087 10.08 17.7353 10.5333 17.9887 10.84C18.2487 11.1467 18.5987 11.3 19.0387 11.3ZM22.6892 12V8.17C22.6892 7.97667 22.6792 7.78 22.6592 7.58C22.6459 7.37333 22.6292 7.16667 22.6092 6.96H23.5892L23.6792 8.02H23.5592C23.7126 7.64667 23.9492 7.36333 24.2692 7.17C24.5892 6.97 24.9592 6.87 25.3792 6.87C25.9726 6.87 26.4192 7.03333 26.7192 7.36C27.0259 7.68667 27.1792 8.19333 27.1792 8.88V12H26.1692V8.94C26.1692 8.49333 26.0792 8.17333 25.8992 7.98C25.7259 7.78 25.4592 7.68 25.0992 7.68C24.6726 7.68 24.3326 7.81333 24.0792 8.08C23.8259 8.34 23.6992 8.69333 23.6992 9.14V12H22.6892Z" fill="white"/>
<defs>
<linearGradient id="paint0_linear_875_275" x1="0" y1="0" x2="32.4429" y2="2.63342" gradientUnits="userSpaceOnUse">
<stop stop-color="#2E22AC"/>
<stop offset="1" stop-color="#DB499E"/>
</linearGradient>
</defs>
</svg>
