<svg width="25" height="24" viewBox="0 0 25 24" fill="none" xmlns="http://www.w3.org/2000/svg">
<g opacity="0.3" clip-path="url(#clip0_203_262)">
<circle cx="12.069" cy="12" r="12" fill="url(#paint0_linear_203_262)"/>
<path d="M20.069 14.0366C20.069 11.6918 17.8652 9.77905 15.1517 9.77905C12.4381 9.77905 10.2495 11.6918 10.2495 14.0366C10.2495 16.3814 12.4532 18.2942 15.1668 18.2942C15.6916 18.2942 16.1863 18.2327 16.6508 18.0937C16.786 18.0626 16.9355 18.0781 17.0707 18.1402L18.2851 18.8188C18.3599 18.8654 18.4649 18.7877 18.4347 18.6952L18.1946 17.6926C18.1644 17.5387 18.2096 17.3841 18.3441 17.2916C19.3945 16.505 20.069 15.3478 20.069 14.0366ZM13.398 13.4816C13.0234 13.4816 12.7235 13.1731 12.7235 12.7876C12.7235 12.4021 13.0234 12.0935 13.398 12.0935C13.7726 12.0935 14.0724 12.4021 14.0724 12.7876C14.0724 13.1731 13.7726 13.4816 13.398 13.4816ZM16.7112 13.4816C16.3365 13.4816 16.0367 13.1731 16.0367 12.7876C16.0367 12.4021 16.3365 12.0935 16.7112 12.0935C17.0858 12.0935 17.3856 12.4021 17.3856 12.7876C17.3856 13.1731 17.0707 13.4816 16.7112 13.4816Z" fill="white"/>
<path d="M9.8453 14.0523C9.8453 11.4455 12.2439 9.33157 15.212 9.33157H15.437C14.9568 6.97121 12.5286 5.1665 9.60518 5.1665C6.32218 5.1665 3.66901 7.41884 3.66901 10.2113C3.66901 11.754 4.49369 13.1422 5.78288 14.0678C5.87276 14.1293 5.90294 14.2373 5.88785 14.3453L5.43844 15.9805C5.40826 16.0886 5.52832 16.1966 5.6333 16.1345L7.38699 15.0549C7.50705 14.9779 7.64154 14.9624 7.77669 15.0083C8.36126 15.1623 8.976 15.2554 9.60583 15.2554C9.74098 15.2554 9.87548 15.2554 10.0257 15.2399C9.905 14.8544 9.8453 14.4533 9.8453 14.0523ZM11.599 7.83541C12.034 7.83541 12.3935 8.2054 12.3935 8.65303C12.3935 9.10066 12.034 9.47065 11.599 9.47065C11.164 9.47065 10.8045 9.10066 10.8045 8.65303C10.8045 8.2054 11.1647 7.83541 11.599 7.83541ZM7.61136 9.47065C7.17639 9.47065 6.81686 9.10066 6.81686 8.65303C6.81686 8.2054 7.17639 7.83541 7.61136 7.83541C8.04634 7.83541 8.40587 8.2054 8.40587 8.65303C8.40587 9.10066 8.06143 9.47065 7.61136 9.47065Z" fill="white"/>
</g>
<defs>
<linearGradient id="paint0_linear_203_262" x1="0.0689697" y1="0" x2="24.5212" y2="0.992405" gradientUnits="userSpaceOnUse">
<stop stop-color="#2E22AC"/>
<stop offset="1" stop-color="#DB499E"/>
</linearGradient>
<clipPath id="clip0_203_262">
<rect width="24" height="24" fill="white" transform="translate(0.0689697)"/>
</clipPath>
</defs>
</svg>
